<svg width="166" height="29" viewBox="0 0 166 29" fill="none" xmlns="http://www.w3.org/2000/svg">
<g clip-path="url(#clip0_31_1054)">
<path d="M4.86048 4.47221L12.6293 0L20.3981 4.47221L17.4831 6.04442L12.6293 3.26333L7.64928 6.04442L4.86048 4.47221ZM20.2786 10.0278L17.4831 8.45558L12.6293 11.2367L7.64928 8.45558L4.85384 10.0278V13.2911L9.71432 16.0722V21.7533L12.5098 23.4444L15.3052 21.7533V16.1977L20.1657 13.4166V10.0344H20.2786V10.0278ZM20.2786 18.9722V15.7089L17.4831 17.4V20.5378L20.2786 18.9722ZM22.3436 20.0556L17.4898 22.8367V26.1L25.2652 21.6278V12.69L22.3502 14.5L22.3436 20.0556ZM19.5482 7.2533L22.3436 8.94442V12.2077L25.139 10.5166V7.2533L22.3436 5.56219L19.5482 7.2533ZM9.71432 24.0456V27.3089L12.5098 29L15.3052 27.3089V24.0456L12.5098 25.7367L9.71432 24.0456ZM4.85384 18.9722L7.64928 20.5444V17.2811L4.85384 15.59V18.9722ZM9.71432 7.2533L12.5098 8.94442L15.4247 7.2533L12.6293 5.56219L9.71432 7.2533ZM2.79544 8.94442L5.7104 7.2533L2.79544 5.56219L0 7.2533V10.5166L2.79544 12.2077V8.94442ZM2.79544 14.5L0 12.8089V21.7467L7.77544 26.2189V22.9556L2.91496 20.1745V14.4934L2.79544 14.5Z" fill="#51525C"/>
<path d="M47.6023 18.2453C47.6023 16.0719 46.3872 14.9819 44.5678 14.2553C45.783 13.6542 46.7524 12.5642 46.7524 10.7542C46.7524 8.21748 44.6874 6.52637 41.4072 6.52637H33.8774V22.7175H41.6462C45.1721 22.592 47.6023 21.1453 47.6023 18.2453ZM43.107 11.3553C43.107 12.5642 42.1376 13.0464 40.5573 13.0464H37.2771V9.54527H40.7963C42.3833 9.54527 43.107 10.153 43.107 11.3553ZM44.0831 17.763C44.0831 18.9719 43.1137 19.5731 41.5334 19.5731H37.2838V16.0719H41.4138C43.2332 15.9464 44.0831 16.6731 44.0831 17.763Z" fill="#51525C"/>
<path d="M65.2113 22.592V6.52637H61.6855V16.4353L54.0362 6.52637H50.7627V22.7175H54.2819V12.4453L62.1769 22.7175H65.2113V22.592Z" fill="#51525C"/>
<path d="M83.0598 18.2453C83.0598 16.0719 81.8447 14.9819 80.0254 14.2553C81.2405 13.6542 82.2099 12.5642 82.2099 10.7542C82.2099 8.21748 80.1449 6.52637 76.8647 6.52637H69.335V22.7175H77.1038C80.6296 22.592 83.0598 21.1453 83.0598 18.2453ZM78.6907 11.3553C78.6907 12.5642 77.7213 13.0464 76.141 13.0464H72.8608V9.54527H76.38C77.8408 9.54527 78.6907 10.153 78.6907 11.3553ZM79.5406 17.763C79.5406 18.9719 78.5712 19.5731 76.9909 19.5731H72.7413V16.0719H76.8714C78.6907 15.9464 79.5406 16.6731 79.5406 17.763Z" fill="#51525C"/>
<path d="M104.554 19.8173L102.734 18.0073C101.4 19.3351 100.065 20.0617 98.1194 20.0617C94.9588 20.0617 92.7742 17.525 92.7742 14.2617C92.7742 11.1173 95.0849 8.58722 98.1194 8.58722C99.9388 8.58722 101.4 9.43278 102.615 10.6417L104.434 8.46831C102.854 7.02162 101.034 5.93164 98.1194 5.93164C93.2589 5.93164 89.7397 9.6772 89.7397 14.2683C89.7397 18.9783 93.2589 22.605 97.9999 22.605C101.034 22.5918 102.854 21.5084 104.554 19.8173Z" fill="#51525C"/>
<path d="M118.398 15.5897V22.3542H121.193V6.16309H118.398V12.9276H110.629V6.16309H107.833V22.3542H110.629V15.5897H118.398Z" fill="#51525C"/>
<path d="M134.062 6.16309H131.392L124.228 22.4731H127.143L128.843 18.6086H136.492L138.192 22.4731H141.226L134.062 6.16309ZM135.522 15.9465H129.938L132.734 9.54532L135.522 15.9465Z" fill="#51525C"/>
<path d="M144.387 6.16309V22.3542H147.176V6.16309H144.387Z" fill="#51525C"/>
<path d="M163.085 17.3998L154.34 6.28199H151.79V22.4731H154.586V10.8731L163.57 22.3542H166V6.16309H163.204V17.3998H163.085Z" fill="#51525C"/>
</g>
<defs>
<clipPath id="clip0_31_1054">
<rect width="166" height="29" fill="white"/>
</clipPath>
</defs>
</svg>
