<svg width="96" height="25" viewBox="0 0 96 25" fill="none" xmlns="http://www.w3.org/2000/svg">
<g clip-path="url(#clip0_31_1047)">
<path d="M29.1111 22.9423V2.05808H35.8157C38.0391 2.05808 39.7133 2.52757 40.8346 3.46653C41.9559 4.40159 42.5165 5.79048 42.5165 7.6332C42.5165 8.60738 42.2477 9.47592 41.6986 10.2232C41.1572 10.9783 40.416 11.5612 39.4752 11.972C40.585 12.285 41.4605 12.8875 42.1056 13.7678C42.7508 14.6559 43.0656 15.7083 43.0656 16.9251C43.0656 18.7991 42.4704 20.2701 41.2762 21.3382C40.0858 22.4102 38.4039 22.9423 36.2266 22.9423H29.1111ZM31.8183 13.2201V20.6809H36.2765C37.536 20.6809 38.5306 20.3523 39.2564 19.6911C39.9821 19.0299 40.3469 18.1183 40.3469 16.9642C40.3469 14.4681 39.0068 13.2201 36.3188 13.2201H31.8183ZM31.8183 10.9587H35.8964C37.0791 10.9587 38.0237 10.6535 38.738 10.051C39.4445 9.44854 39.8016 8.63476 39.8016 7.6019C39.8016 6.45167 39.4714 5.61833 38.8148 5.09799C38.1581 4.57373 37.1559 4.31552 35.8157 4.31552H31.8183V10.9587ZM58.3757 17.4806H49.7818L47.8541 22.9462H45.0663L52.896 2.05808H55.2615L63.1028 22.9462H60.3303L58.3757 17.4806ZM50.6036 15.2193H57.577L54.0826 5.45793L50.6036 15.2193ZM71.904 13.6348C69.5885 12.954 67.9028 12.1168 66.8429 11.1269C65.7869 10.1371 65.257 8.91254 65.257 7.46106C65.257 5.81786 65.906 4.45636 67.1924 3.37655C68.4865 2.30065 70.1607 1.76074 72.2228 1.76074C73.632 1.76074 74.8916 2.03852 75.9898 2.59408C77.0957 3.14572 77.9444 3.91254 78.5511 4.89063C79.1578 5.86481 79.4612 6.93289 79.4612 8.08703H76.7463C76.7463 6.82334 76.3508 5.8296 75.5636 5.10581C74.7764 4.38594 73.6589 4.02209 72.2228 4.02209C70.8903 4.02209 69.8535 4.31943 69.1085 4.91802C68.3597 5.52052 67.9872 6.34603 67.9872 7.41019C67.9872 8.26309 68.3367 8.98688 69.0509 9.57373C69.7575 10.1606 70.9632 10.7005 72.6682 11.1895C74.3693 11.6786 75.7056 12.2185 76.6656 12.8053C77.6256 13.3922 78.3399 14.0769 78.8045 14.8672C79.2692 15.6496 79.4996 16.5769 79.4996 17.6371C79.4996 19.3312 78.8506 20.6888 77.5565 21.706C76.2586 22.7232 74.5306 23.2318 72.361 23.2318C70.9517 23.2318 69.6346 22.9579 68.4173 22.4102C67.2 21.8586 66.2592 21.1035 65.5949 20.1488C64.9306 19.1942 64.6042 18.1066 64.6042 16.8938H67.3191C67.3191 18.1535 67.776 19.1473 68.6938 19.875C69.6077 20.6027 70.8288 20.9704 72.361 20.9704C73.7895 20.9704 74.8801 20.6731 75.6404 20.0784C76.4045 19.4877 76.7847 18.6778 76.7847 17.6606C76.7847 16.6355 76.4276 15.8453 75.7287 15.2858C75.0336 14.7341 73.7549 14.1786 71.904 13.6348ZM94.5639 13.3061H85.682V20.6809H96V22.9423H82.9786V2.05808H95.8618V4.31943H85.682V11.0448H94.5639V13.3061Z" fill="#51525C"/>
<path d="M12.2227 25C18.9965 25 24.4915 19.4053 24.4915 12.5C24.4915 5.59859 19.0003 0 12.2227 0C5.7984 0 0.52224 5.03912 0 11.4476H16.2125V13.5485H0C0.52224 19.9609 5.7984 25 12.2227 25Z" fill="#51525C"/>
</g>
<defs>
<clipPath id="clip0_31_1047">
<rect width="96" height="25" fill="white"/>
</clipPath>
</defs>
</svg>
