<svg width="112" height="29" viewBox="0 0 112 29" fill="none" xmlns="http://www.w3.org/2000/svg">
<g clip-path="url(#clip0_31_1075)">
<path d="M0 0V29H26.656V25.7527H3.1808V3.24728H26.656V0H0Z" fill="#51525C"/>
<path d="M45.8752 12.9442L50.3552 5.86328H54.0736L48.7424 14.2521V14.7031L54.3424 23.137H50.4896L45.8752 16.0561V12.9442Z" fill="#51525C"/>
<path d="M65.0049 16.0561H69.2609L67.3345 7.48692H66.8865L64.9601 16.0561H65.0049ZM69.9777 19.3034H64.2881L63.4369 23.137H60.0769L64.1089 5.86328H70.1121L74.1441 23.137H70.7841L69.9329 19.3034H69.9777Z" fill="#51525C"/>
<path d="M82.6562 5.86328H85.837V20.025H93.5426V23.137H82.6562V5.86328Z" fill="#51525C"/>
<path d="M29.2991 11.1402C29.2991 10.4637 29.0303 9.83228 28.4927 9.33616C27.9551 8.84005 27.2383 8.56945 26.2527 8.56945C25.4463 8.56945 24.8191 8.74985 24.3263 9.06556C23.8335 9.42637 23.6095 9.87738 23.6095 10.4186C23.6095 10.7343 23.6543 11.0049 23.7887 11.2304C23.9231 11.4559 24.1023 11.6814 24.3711 11.8618C24.6399 12.0422 24.9983 12.2226 25.4911 12.3579C25.9391 12.4932 26.5215 12.6285 27.2383 12.7638C29.0303 13.0796 30.3743 13.6659 31.3151 14.4326C32.2559 15.1993 32.7487 16.3268 32.7487 17.8603V18.176C32.7487 18.9878 32.6143 19.7094 32.3007 20.3408C32.0319 20.9722 31.6287 21.5586 31.0911 22.0096C30.5535 22.4606 29.9263 22.8214 29.1647 23.092C28.4031 23.3175 27.5519 23.4528 26.6111 23.4528C25.4911 23.4528 24.5055 23.2724 23.6543 22.9567C22.8031 22.641 22.0863 22.19 21.5487 21.6037C21.0111 21.0173 20.5631 20.3859 20.2495 19.6192C19.9359 18.8525 19.8015 17.9956 19.8015 17.1387V17.0034H22.9823C22.9823 18.0407 23.2959 18.8525 23.8783 19.4839C24.4607 20.1153 25.3567 20.431 26.6111 20.431C27.5967 20.431 28.3135 20.2055 28.7615 19.7996C29.2543 19.3486 29.4783 18.8525 29.4783 18.2662C29.4783 17.9956 29.4335 17.725 29.3439 17.4544C29.2543 17.1838 29.0751 16.9582 28.8511 16.7778C28.6271 16.5523 28.2687 16.3719 27.8655 16.2366C27.4175 16.0562 26.9247 15.9209 26.2527 15.8307C25.4015 15.6954 24.6399 15.4699 23.8783 15.2444C23.1615 15.0189 22.5343 14.7032 22.0415 14.2973C21.5039 13.8914 21.1007 13.3953 20.8319 12.8089C20.5183 12.2226 20.3839 11.501 20.3839 10.6441V10.5088C20.3839 9.78718 20.5183 9.15576 20.8319 8.56945C21.1007 7.98313 21.5039 7.44192 22.0415 6.99091C22.5343 6.5399 23.1615 6.17909 23.8783 5.95358C24.5951 5.72808 25.4015 5.59277 26.2975 5.59277C27.2831 5.59277 28.1791 5.72808 28.9407 6.04378C29.7023 6.31439 30.3743 6.7203 30.9119 7.21641C31.4495 7.71252 31.8079 8.29884 32.1215 8.93025C32.5247 9.69697 32.5247 11.2304 32.5247 11.2304L29.3439 11.1853L29.2991 11.1402Z" fill="#51525C"/>
<path d="M100.979 5.86328V23.137H112V20.025H104.205V8.97526H112V5.86328H100.979Z" fill="#51525C"/>
<path d="M43.5905 5.86328H40.4097V23.137H43.5905V5.86328Z" fill="#51525C"/>
<path d="M109.536 12.9443H106.49V16.0563H109.536V12.9443Z" fill="#51525C"/>
</g>
<defs>
<clipPath id="clip0_31_1075">
<rect width="112" height="29" fill="white"/>
</clipPath>
</defs>
</svg>
