<svg width="150" height="35" viewBox="0 0 150 35" fill="none" xmlns="http://www.w3.org/2000/svg">
<g clip-path="url(#clip0_31_1068)">
<path fill-rule="evenodd" clip-rule="evenodd" d="M1.27209 5.98193C0.0900879 8.31928 0.0900879 11.3855 0.0900879 17.5181C0.0900879 23.6506 0.0900879 26.7169 1.27209 29.0542C2.30409 31.1265 3.98409 32.7711 6.04209 33.8434C8.37009 35.0301 11.4241 35.0301 17.5321 35.0301C23.6401 35.0301 26.6941 35.0301 29.0221 33.8434C31.0861 32.8072 32.7241 31.1205 33.7921 29.0542C34.9741 26.7169 34.9741 23.6506 34.9741 17.5181C34.9741 11.3855 34.9741 8.31928 33.7921 5.98193C32.7601 3.90964 31.0801 2.26506 29.0221 1.19277C26.7001 0 23.6461 0 17.5381 0C11.4301 0 8.37009 0 6.04209 1.18675C3.98409 2.22289 2.34009 3.90964 1.27209 5.98193ZM26.2021 9.42771C26.5081 9.42771 26.8141 9.54217 27.0061 9.77108C27.2341 10 27.3481 10.2711 27.3481 10.5783C27.3121 13.8373 27.1561 16.3313 26.9281 18.3193C26.7001 20.2771 26.3581 21.7711 25.8181 22.9578C25.4761 23.7651 25.0561 24.4157 24.5221 24.9518C23.8321 25.6807 23.0701 26.2169 22.2301 26.753C21.8461 26.9819 21.5041 27.1747 21.0841 27.4036C20.2441 27.9036 19.3261 28.3976 18.2581 29.1265C17.8741 29.3976 17.3821 29.3976 16.9981 29.1265C15.9301 28.3976 14.9761 27.8614 14.1361 27.4036C13.9441 27.2892 13.7521 27.1747 13.5661 27.0964C12.5761 26.5241 11.6581 25.9458 10.8961 25.1807C10.3621 24.6446 9.90609 24.0301 9.55809 23.2651C9.06009 22.2289 8.71809 21.006 8.49009 19.4337C8.14809 17.3253 7.99209 14.5241 7.95609 10.6566C7.95609 10.3494 8.07009 10.0422 8.26209 9.8494C8.49009 9.62048 8.76009 9.50602 9.06609 9.50602H9.52209C10.9741 9.50602 14.1421 9.35542 16.8901 7.20482C17.3101 6.89759 17.8801 6.89759 18.2641 7.20482C21.0121 9.3494 24.2221 9.50602 25.6741 9.50602H26.1301L26.2021 9.42771ZM23.6821 22.1988C24.0241 21.4699 24.3301 20.4337 24.5581 19.0181C24.8281 17.2952 24.9781 14.9157 25.0561 11.6988C23.3761 11.6627 20.4361 11.3133 17.6461 9.43976C14.8561 11.3193 11.9581 11.6265 10.2361 11.6988C10.3141 14.3434 10.4281 16.4157 10.6201 18.0602C10.8481 19.8976 11.1541 21.1627 11.5381 22.0482C11.8081 22.6205 12.0721 23.0422 12.4141 23.4277C12.8701 23.9277 13.4461 24.3494 14.2081 24.8072C14.5141 25 14.8981 25.1928 15.2761 25.4217C15.9661 25.8072 16.7641 26.2651 17.6461 26.8374C18.5221 26.3012 19.2901 25.8434 19.9741 25.4578C20.1661 25.3434 20.3941 25.2289 20.5441 25.1145C21.4981 24.5783 22.2241 24.1205 22.7221 23.5783C23.0641 23.1928 23.3701 22.8133 23.6401 22.2771L23.6821 22.1988Z" fill="#51525C"/>
<path d="M48.996 13.994H45.1021V11.6928H55.716V13.994H51.8221V23.9217H48.996V13.994ZM58.926 15.753C59.268 15.2952 59.6881 14.9458 60.2221 14.7169C60.7921 14.488 61.4041 14.3735 62.1301 14.3735V16.9036C61.8241 16.8675 61.6321 16.8675 61.5181 16.8675C60.7561 16.8675 60.144 17.0964 59.6881 17.5181C59.232 17.9398 59.0401 18.5904 59.0401 19.4759V23.9217H56.328V14.488H58.926V15.7169V15.753ZM72.7501 14.5301V23.9579H70.152V22.8434C69.81 23.2651 69.348 23.5723 68.856 23.8012C68.358 23.994 67.8241 24.1085 67.2541 24.1085C66.0301 24.1085 65.0401 23.7651 64.3141 23.0362C63.5881 22.3073 63.246 21.2711 63.246 19.8554V14.5241H65.9581V19.4338C65.9581 20.9699 66.606 21.6928 67.866 21.6928C68.514 21.6928 69.048 21.5 69.432 21.0783C69.816 20.6567 70.0441 20.006 70.0441 19.1627V14.5241H72.7501V14.5301ZM77.9041 24.0723C77.1421 24.0723 76.374 23.994 75.612 23.8012C74.886 23.6085 74.2741 23.3434 73.8181 23.0723L74.736 21.1145C75.156 21.3856 75.654 21.6145 76.2661 21.7651C76.878 21.9157 77.4481 21.994 78.0241 21.994C79.1701 21.994 79.7401 21.7229 79.7401 21.1506C79.7401 20.8795 79.5901 20.6928 79.2841 20.5783C78.9781 20.4639 78.48 20.3494 77.8321 20.2711C77.07 20.1567 76.4221 20 75.9241 19.8856C75.4261 19.735 74.9701 19.4639 74.6281 19.0783C74.2861 18.6928 74.0941 18.1567 74.0941 17.4277C74.0941 16.8133 74.244 16.3133 74.592 15.8554C74.934 15.3976 75.4321 15.0121 76.0801 14.7832C76.7281 14.5121 77.5321 14.3976 78.4081 14.3976C79.0561 14.3976 79.7461 14.4759 80.3941 14.6265C81.0421 14.7771 81.6181 14.9699 82.0381 15.241L81.1201 17.1988C80.2801 16.741 79.4041 16.506 78.4081 16.506C77.8381 16.506 77.376 16.5844 77.112 16.735C76.806 16.8856 76.692 17.1205 76.692 17.3494C76.692 17.6567 76.8421 17.8494 77.1481 17.9639C77.4541 18.0783 77.952 18.1928 78.6361 18.3073C79.398 18.4217 80.0461 18.5783 80.5081 18.7289C81.0061 18.8795 81.4261 19.1145 81.7681 19.5362C82.1101 19.9217 82.302 20.4579 82.302 21.1446C82.302 21.7169 82.1101 22.2591 81.7681 22.7169C81.4261 23.1747 80.8921 23.5241 80.2381 23.7892C79.5901 24.0181 78.7861 24.1747 77.8681 24.1747L77.9041 24.0723ZM89.5081 23.4639C89.2381 23.6567 88.8961 23.8073 88.5181 23.9217C88.1341 24 87.7141 24.0723 87.2941 24.0723C86.1841 24.0723 85.3081 23.8012 84.696 23.2289C84.084 22.6567 83.7781 21.8133 83.7781 20.6988V16.8253H82.326V14.7169H83.7781V12.4157H86.4901V14.7169H88.8181V16.8253H86.4901V20.6627C86.4901 21.0482 86.604 21.3554 86.7961 21.5844C86.988 21.7771 87.294 21.8916 87.6721 21.8916C88.092 21.8916 88.476 21.7771 88.782 21.5482L89.5081 23.4639ZM113.562 11.6567L109.554 23.8856H106.536L103.866 15.6024L101.076 23.8856H98.0581L94.0501 11.6567H96.9901L99.7381 20.2832L102.6 11.6567H105.198L107.988 20.3193L110.814 11.6567H113.526H113.562ZM117.498 14.3374C118.95 14.3374 120.054 14.6807 120.858 15.3735C121.62 16.0663 122.04 17.0964 122.04 18.5181V23.8856H119.484V22.6988C118.986 23.5783 118.032 24 116.622 24C115.896 24 115.284 23.8856 114.75 23.6145C114.216 23.3856 113.832 23.0422 113.568 22.6205C113.304 22.1988 113.148 21.6988 113.148 21.1627C113.148 20.2832 113.49 19.5904 114.138 19.0904C114.786 18.5904 115.818 18.3253 117.192 18.3253H119.37C119.37 17.7109 119.178 17.2892 118.836 16.9458C118.494 16.6024 117.918 16.4458 117.234 16.4458C116.736 16.4458 116.244 16.5241 115.746 16.6747C115.29 16.8253 114.87 17.0181 114.522 17.2892L113.532 15.3735C114.03 15.0301 114.642 14.7229 115.362 14.5301C116.088 14.3374 116.814 14.2229 117.576 14.2229L117.498 14.3374ZM117.306 22.1988C117.762 22.1988 118.182 22.0844 118.53 21.8916C118.872 21.6627 119.142 21.3554 119.292 20.9338V19.9759H117.42C116.31 19.9759 115.74 20.3615 115.74 21.0904C115.74 21.4338 115.89 21.7048 116.16 21.9338C116.43 22.1265 116.808 22.241 117.306 22.241V22.1988ZM123.948 10.9277H126.66V23.9217H123.948V10.9277ZM128.682 10.9277H131.394V23.9217H128.682V10.9277ZM142.584 19.247C142.584 19.2832 142.584 19.5181 142.548 19.9759H135.444C135.558 20.5482 135.864 21.0121 136.362 21.3554C136.818 21.6988 137.43 21.8554 138.156 21.8554C138.654 21.8554 139.074 21.7771 139.452 21.6627C139.836 21.5121 140.178 21.2771 140.52 20.9699L141.972 22.5422C141.096 23.5362 139.794 24.0783 138.114 24.0783C137.046 24.0783 136.128 23.8856 135.324 23.4639C134.52 23.0422 133.872 22.4699 133.452 21.741C132.996 21.0121 132.804 20.1687 132.804 19.247C132.804 18.3253 133.032 17.482 133.452 16.753C133.908 16.0241 134.484 15.4097 135.246 15.0301C136.008 14.6085 136.848 14.4157 137.802 14.4157C138.72 14.4157 139.56 14.6085 140.286 15.0301C141.012 15.4157 141.624 15.988 142.044 16.753C142.464 17.482 142.692 18.3615 142.692 19.3193L142.584 19.247ZM137.73 16.4458C137.118 16.4458 136.584 16.6386 136.164 16.982C135.744 17.3253 135.474 17.8253 135.402 18.3976H140.022C139.944 17.7832 139.68 17.3253 139.26 16.982C138.84 16.6386 138.342 16.4458 137.73 16.4458ZM149.91 23.4639C149.64 23.6567 149.298 23.8073 148.92 23.9217C148.536 24 148.116 24.0723 147.696 24.0723C146.586 24.0723 145.71 23.8012 145.098 23.2289C144.486 22.6567 144.18 21.8133 144.18 20.6988V16.8253H142.728V14.7169H144.18V12.4157H146.892V14.7169H149.22V16.8253H146.892V20.6627C146.892 21.0482 147.006 21.3554 147.198 21.5844C147.39 21.7771 147.696 21.8916 148.074 21.8916C148.494 21.8916 148.878 21.7771 149.184 21.5482L149.91 23.4639Z" fill="#51525C"/>
</g>
<defs>
<clipPath id="clip0_31_1068">
<rect width="150" height="35" fill="white"/>
</clipPath>
</defs>
</svg>
