<svg width="174" height="27" viewBox="0 0 174 27" fill="none" xmlns="http://www.w3.org/2000/svg">
<g clip-path="url(#clip0_31_1088)">
<path fill-rule="evenodd" clip-rule="evenodd" d="M21.7152 14.7147L30.9024 24.2237C31.0416 24.3625 31.1112 24.5013 31.1808 24.6401C31.2504 24.7789 31.2504 24.9177 31.2504 25.126C31.2504 25.2648 31.2504 25.473 31.1808 25.6118C31.1112 25.7506 31.0416 25.8895 30.9024 26.0283L30.2064 26.7224C29.9976 26.9306 29.7888 27.0694 29.5104 27.0694C29.3016 27.0694 29.1624 27.0694 28.9536 27C28.8144 26.9306 28.6056 26.8612 28.4664 26.7224L17.1912 15.1311C16.9824 14.9229 16.8432 14.7147 16.704 14.437C16.5648 14.1594 16.5648 13.8817 16.5648 13.6041C16.5648 13.3265 16.6344 13.0488 16.704 12.7712C16.8432 12.4936 16.9824 12.2853 17.1912 12.0771L28.4664 0.485861C28.6056 0.347044 28.6752 0.277635 28.884 0.208226C29.0232 0.138817 29.1624 0.138817 29.3016 0.138817C29.4408 0.138817 29.58 0.138817 29.7192 0.208226C29.8584 0.277635 29.9976 0.347044 30.1368 0.485861L30.8328 1.24936C30.972 1.38817 31.0416 1.52699 31.1112 1.66581C31.1808 1.80463 31.1808 1.94344 31.1808 2.15167C31.1808 2.29049 31.1808 2.49871 31.1112 2.63753C31.0416 2.77635 30.972 2.91517 30.8328 3.05398L21.6456 12.563C21.3672 12.91 21.1584 13.3265 21.1584 13.7429C21.1584 14.1594 21.2976 14.5758 21.6456 14.9229L21.7152 14.7147ZM9.6048 12.3548L0.4176 2.84576C0.2784 2.70694 0.2088 2.56812 0.1392 2.42931C0.0696 2.29049 0.0696 2.15167 0.0696 1.94344C0.0696 1.80463 0.0696 1.5964 0.1392 1.45758C0.2088 1.31877 0.2784 1.17995 0.4176 1.04113L1.1136 0.347044C1.3224 0.138817 1.5312 0 1.8096 0C2.0184 0 2.1576 0 2.3664 0.0694087C2.5056 0.138817 2.7144 0.208226 2.8536 0.347044L14.1288 11.9383C14.3376 12.1465 14.4768 12.3548 14.616 12.6324C14.7552 12.91 14.7552 13.1877 14.7552 13.4653C14.7552 13.7429 14.6856 14.0206 14.616 14.2982C14.4768 14.5758 14.3376 14.7841 14.1288 14.9923L2.8536 26.5835C2.7144 26.7224 2.6448 26.7918 2.436 26.8612C2.2968 26.9306 2.1576 26.9306 1.9488 26.9306C1.8096 26.9306 1.6704 26.9306 1.4616 26.8612C1.3224 26.7918 1.1832 26.7224 1.044 26.5835L0.348 25.8895C0.2088 25.7506 0.1392 25.6118 0.0696 25.473C0 25.3342 0 25.1954 0 24.9871C0 24.8483 0 24.6401 0.0696 24.5013C0.1392 24.3625 0.2088 24.2237 0.348 24.0848L9.5352 14.5758C9.8136 14.2288 10.0224 13.8123 10.0224 13.3959C10.0224 12.9794 9.8832 12.4936 9.5352 12.2159L9.6048 12.3548Z" fill="#51525C"/>
<path fill-rule="evenodd" clip-rule="evenodd" d="M78.4391 11.7301C77.7431 11.3137 76.9079 11.0361 76.1423 11.0361C75.4463 11.0361 74.8199 11.1749 74.1935 11.5219C73.8455 11.7301 73.4975 12.0078 73.2191 12.2854V6.45508H71.0615V20.6839H73.2191V19.6427C73.4975 19.9898 73.8455 20.198 74.1935 20.4062C74.8199 20.6839 75.4463 20.8921 76.1423 20.8921C76.9775 20.8921 77.7431 20.6839 78.4391 20.2674C79.1351 19.851 79.6919 19.2263 80.1095 18.5322C80.5271 17.7687 80.7359 16.8664 80.7359 16.0335C80.7359 15.1312 80.5271 14.2983 80.1095 13.5348C79.7615 12.7713 79.1351 12.216 78.4391 11.7301ZM78.0911 17.4911C77.8823 17.9075 77.5343 18.2546 77.1167 18.5322C76.6991 18.8098 76.2119 18.8792 75.7247 18.8792C75.2375 18.8792 74.7503 18.7404 74.3327 18.5322C73.9151 18.2546 73.5671 17.9075 73.3583 17.4911C73.1495 17.0052 73.0103 16.5193 73.0103 15.9641C73.0103 15.4088 73.1495 14.9229 73.3583 14.4371C73.5671 14.0206 73.9151 13.6736 74.3327 13.396C74.7503 13.1183 75.2375 12.9795 75.7247 13.0489C76.2119 13.0489 76.6991 13.1877 77.1167 13.396C77.5343 13.6042 77.8823 13.9512 78.0911 14.4371C78.3695 14.9229 78.4391 15.4088 78.4391 15.9641C78.4391 16.5193 78.2999 17.0052 78.0911 17.4911ZM54.7055 18.7404C55.5407 18.7404 56.2367 18.6016 56.8631 18.3934C57.4199 18.1157 57.9767 17.7687 58.3943 17.3523L59.9255 18.8792C59.2991 19.5039 58.5335 20.0592 57.6983 20.4062C56.8631 20.7533 55.8191 20.9615 54.7055 20.9615C53.7311 20.9615 52.8263 20.7533 51.9215 20.4062C51.0863 20.0592 50.3207 19.5039 49.6943 18.8792C49.0679 18.2546 48.5807 17.4217 48.2327 16.5888C47.8847 15.6864 47.6759 14.7841 47.7455 13.8124C47.7455 12.8407 47.8847 11.9384 48.2327 11.0361C48.5807 10.2032 49.0679 9.43965 49.6943 8.74557C50.3207 8.05148 51.1559 7.56562 51.9911 7.21857C52.8263 6.87153 53.8007 6.6633 54.7055 6.6633C55.8191 6.6633 56.7935 6.87153 57.6287 7.21857C58.4639 7.56562 59.1599 8.12089 59.7863 8.74557L58.2551 10.2726C57.8375 9.7867 57.3503 9.43965 56.7239 9.23143C56.1671 8.95379 55.4711 8.88438 54.7055 8.88438C54.0791 8.88438 53.3831 9.0232 52.8263 9.23143C52.2695 9.43965 51.7823 9.7867 51.3647 10.2726C50.9471 10.7584 50.5991 11.2443 50.3903 11.869C50.1815 12.4936 50.0423 13.1877 50.0423 13.8818C50.0423 14.5759 50.1815 15.27 50.3903 15.8947C50.5991 16.4499 50.9471 17.0052 51.3647 17.4911C51.7823 17.9075 52.2695 18.2546 52.8263 18.5322C53.4527 18.8098 54.0791 18.8792 54.7055 18.8792V18.7404ZM62.3615 11.2443L64.7975 17.4217L67.3727 11.2443H69.8087L65.3543 20.8227L63.6143 24.7096H61.1783L63.5447 19.7816L59.9255 11.2443H62.3615ZM86.7911 11.0361C87.6959 11.0361 88.4615 11.2443 89.1575 11.6607C89.8535 12.0772 90.4103 12.6325 90.7583 13.3265C91.1759 14.09 91.3847 14.9229 91.3847 15.7559C91.3847 15.8947 91.3847 16.1029 91.3151 16.2417C91.3151 16.4499 91.2455 16.5888 91.2455 16.797H84.1463C84.2159 17.0052 84.2855 17.2828 84.4247 17.4911C84.6335 17.9075 84.9815 18.324 85.4687 18.5322C85.9559 18.8098 86.4431 18.8792 86.9999 18.8792C87.4871 18.8792 87.9047 18.8098 88.3223 18.6016C88.7399 18.4628 89.0879 18.1852 89.3663 17.8381L90.7583 19.2263C90.2711 19.7816 89.7143 20.198 89.0879 20.4756C88.3919 20.7533 87.6959 20.8921 86.9999 20.8921C86.0951 20.8921 85.1903 20.6839 84.4247 20.2674C83.6591 19.851 83.0327 19.2263 82.6151 18.4628C82.1975 17.6993 81.9887 16.8664 81.9887 15.9641C81.9887 15.3394 82.1279 14.6453 82.3367 14.09C82.5455 13.4654 82.9631 12.9101 83.3807 12.4936C83.8679 12.0078 84.3551 11.6607 84.9815 11.4525C85.6079 11.1749 86.2343 11.1055 86.8607 11.1055L86.7911 11.0361ZM85.3295 13.396C84.9119 13.6042 84.5639 13.9512 84.3551 14.4371C84.2855 14.6453 84.1463 14.8535 84.1463 15.0618H89.2271C89.1575 14.7841 89.0879 14.5759 88.9487 14.2983C88.7399 13.8818 88.4615 13.6042 88.1135 13.396C87.7655 13.1877 87.2783 13.0489 86.7911 13.0489C86.3039 13.0489 85.8167 13.1877 85.3295 13.396ZM99.0407 11.3137C98.6231 11.1055 98.2055 11.0361 97.7183 11.0361C96.6047 11.0361 95.8391 11.3831 95.2823 12.1466C95.2823 12.1466 95.2823 12.1466 95.2823 12.216V11.2443H93.1247V20.7533H95.2823V15.4782C95.2823 14.6453 95.4911 14.09 95.9087 13.6736C96.3263 13.2571 96.8135 13.1183 97.4399 13.1183C97.7183 13.1183 97.9271 13.1877 98.2055 13.2571C98.4143 13.3265 98.6231 13.4654 98.7623 13.6736L100.224 12.216C99.9455 11.869 99.5975 11.5913 99.1799 11.3831L99.0407 11.3137ZM108.158 18.8098C108.994 18.8098 109.69 18.671 110.316 18.4628C110.873 18.1852 111.43 17.8381 111.847 17.4217L113.378 18.9487C112.752 19.5733 111.986 20.1286 111.151 20.4756C110.316 20.8227 109.272 21.0309 108.158 21.0309C107.184 21.0309 106.279 20.8227 105.374 20.4756C104.539 20.1286 103.774 19.5733 103.147 18.9487C102.521 18.324 102.034 17.4911 101.686 16.6582C101.338 15.7559 101.129 14.8535 101.198 13.8818C101.198 12.9101 101.338 12.0078 101.686 11.1055C102.034 10.2726 102.521 9.50906 103.147 8.81498C103.774 8.12089 104.609 7.63503 105.444 7.28798C106.279 6.94094 107.254 6.73271 108.158 6.73271C109.272 6.73271 110.246 6.94094 111.082 7.28798C111.917 7.63503 112.613 8.1903 113.239 8.81498L111.708 10.342C111.29 9.85611 110.803 9.50906 110.177 9.30084C109.62 9.0232 108.924 8.95379 108.158 8.95379C107.532 8.95379 106.836 9.09261 106.279 9.30084C105.722 9.50906 105.235 9.85611 104.818 10.342C104.4 10.8278 104.052 11.3137 103.843 11.9384C103.634 12.563 103.495 13.2571 103.495 13.9512C103.495 14.6453 103.634 15.3394 103.843 15.9641C104.052 16.5193 104.4 17.0746 104.818 17.5605C105.235 17.9769 105.722 18.324 106.279 18.6016C106.906 18.8792 107.532 18.9487 108.158 18.9487V18.8098ZM121.73 11.7301C120.965 11.3137 120.06 11.0361 119.155 11.1055C118.25 11.1055 117.415 11.3137 116.65 11.7996C115.884 12.216 115.258 12.8407 114.84 13.5348C114.422 14.2983 114.144 15.1312 114.214 16.0335C114.214 16.9358 114.422 17.7687 114.84 18.5322C115.258 19.2957 115.884 19.9204 116.65 20.3368C117.206 20.6839 117.833 20.8921 118.529 20.9615C119.155 21.0309 119.851 21.0309 120.478 20.8227C121.104 20.6839 121.73 20.3368 122.218 19.9898C122.774 19.5733 123.192 19.0875 123.54 18.5322C124.027 17.7687 124.236 16.9358 124.236 16.0335C124.236 15.1312 124.027 14.2983 123.54 13.5348C123.122 12.7713 122.496 12.1466 121.73 11.7301ZM121.591 17.4911C121.382 17.9075 121.034 18.2546 120.617 18.5322C120.199 18.8098 119.712 18.8792 119.155 18.8792C118.668 18.8792 118.181 18.7404 117.694 18.5322C117.276 18.2546 116.928 17.9075 116.719 17.4911C116.51 17.0052 116.371 16.5193 116.371 16.0335C116.371 15.5476 116.51 14.9924 116.719 14.5759C116.928 14.1594 117.276 13.8124 117.694 13.6042C118.111 13.3265 118.598 13.1877 119.155 13.2571C119.642 13.2571 120.13 13.396 120.617 13.6042C121.034 13.8124 121.382 14.1594 121.591 14.5759C121.87 14.9924 121.939 15.5476 121.939 16.0335C121.939 16.5193 121.8 17.0746 121.591 17.4911ZM131.057 11.1055C131.753 11.1055 132.379 11.3137 132.936 11.6607C133.493 12.0078 133.91 12.4936 134.258 13.0489C134.537 13.6042 134.746 14.2289 134.746 14.8535V20.8227H132.588V15.3394C132.588 14.7147 132.379 14.1594 131.962 13.743C131.544 13.3265 131.057 13.1183 130.43 13.1183C130.013 13.1183 129.665 13.1877 129.317 13.396C128.969 13.6042 128.69 13.8124 128.551 14.1594C128.342 14.5065 128.273 14.9229 128.273 15.27V20.7533H126.115V11.2443H128.273V12.3548C128.551 12.0078 128.83 11.7996 129.178 11.5913C129.734 11.2443 130.43 11.1055 131.057 11.1055ZM143.933 11.6607C143.376 11.3137 142.68 11.1055 142.054 11.1055C141.358 11.1055 140.731 11.2443 140.174 11.5913C139.826 11.7996 139.478 12.0772 139.27 12.3548V11.2443H137.112V20.7533H139.27V15.27C139.27 14.8535 139.339 14.5065 139.548 14.1594C139.757 13.8124 139.966 13.5348 140.314 13.396C140.662 13.1877 141.079 13.1183 141.427 13.1183C142.054 13.1183 142.61 13.3265 142.958 13.743C143.376 14.1594 143.585 14.6453 143.585 15.3394V20.8227H145.742V14.8535C145.742 14.2289 145.603 13.6042 145.255 13.0489C144.977 12.4936 144.49 12.0078 143.933 11.6607ZM152.215 11.1055C153.12 11.1055 153.886 11.3137 154.582 11.7301C155.278 12.1466 155.834 12.7019 156.182 13.396C156.6 14.1594 156.809 14.9924 156.809 15.8253C156.809 15.9641 156.809 16.1723 156.739 16.3111C156.739 16.5193 156.67 16.6582 156.67 16.8664H149.57C149.64 17.0746 149.71 17.3523 149.849 17.5605C150.058 17.9769 150.406 18.3934 150.893 18.6016C151.38 18.8792 151.867 18.9487 152.424 18.9487C152.911 18.9487 153.329 18.8792 153.746 18.671C154.164 18.5322 154.512 18.2546 154.79 17.9075L156.182 19.2957C155.695 19.851 155.138 20.2674 154.512 20.5451C153.816 20.8227 153.12 20.9615 152.424 20.9615C151.519 20.9615 150.614 20.7533 149.849 20.3368C149.083 19.9204 148.457 19.2957 148.039 18.5322C147.622 17.7687 147.413 16.9358 147.413 16.0335C147.413 15.4088 147.552 14.7147 147.761 14.1594C147.97 13.5348 148.387 12.9795 148.805 12.563C149.292 12.0772 149.779 11.7301 150.406 11.5219C151.032 11.2443 151.658 11.1749 152.285 11.1749L152.215 11.1055ZM150.754 13.4654C150.336 13.6736 149.988 14.0206 149.779 14.5065C149.71 14.7147 149.57 14.9229 149.57 15.1312H154.651C154.582 14.8535 154.512 14.6453 154.373 14.3677C154.164 13.9512 153.886 13.6736 153.538 13.4654C153.19 13.2571 152.702 13.1183 152.215 13.1183C151.728 13.1183 151.241 13.2571 150.754 13.4654ZM161.472 13.6042C161.89 13.3265 162.446 13.1877 162.934 13.2571C163.351 13.2571 163.769 13.3265 164.186 13.5348C164.604 13.6736 164.952 13.9512 165.23 14.2983L166.692 12.8407C166.274 12.2854 165.648 11.869 165.022 11.6607C164.395 11.3831 163.699 11.2443 162.934 11.2443C162.029 11.2443 161.124 11.4525 160.358 11.869C159.593 12.2854 158.966 12.9101 158.549 13.6736C158.131 14.4371 157.853 15.3394 157.922 16.1723C157.922 17.0746 158.131 17.9075 158.549 18.671C158.966 19.4345 159.593 20.0592 160.358 20.4756C161.054 20.8921 161.82 21.1003 162.655 21.1003C163.49 21.1697 164.256 21.0309 165.022 20.6839C165.648 20.4062 166.205 19.9898 166.692 19.4345L165.23 17.9769C164.952 18.324 164.604 18.5322 164.186 18.7404C163.769 18.8792 163.351 19.0181 162.934 18.9487C162.446 18.9487 161.959 18.8098 161.472 18.6016C161.054 18.324 160.706 17.9769 160.498 17.5605C160.289 17.0746 160.15 16.5888 160.15 16.1029C160.15 15.617 160.219 15.0618 160.498 14.6453C160.706 14.2289 161.054 13.8818 161.472 13.6736V13.6042ZM171.703 11.3137H174V13.3265H171.703V20.8227H169.546V13.3265H167.249V11.3137H169.546V7.35739H171.703V11.3137Z" fill="#51525C"/>
</g>
<defs>
<clipPath id="clip0_31_1088">
<rect width="174" height="27" fill="white"/>
</clipPath>
</defs>
</svg>
