<svg width="161" height="52" viewBox="0 0 161 52" fill="none" xmlns="http://www.w3.org/2000/svg">
<g clip-path="url(#clip0_31_961)">
<path d="M161 33.5469C160.604 35.036 160.01 36.3896 159.35 37.6756C159.152 38.0817 158.954 38.4878 158.691 38.8939C157.569 40.586 155.523 41.7366 153.411 41.7366C151.498 41.7366 149.716 40.8567 148.528 39.4354C148.462 39.3677 148.396 39.3 148.33 39.2323C147.143 37.811 145.427 36.9311 143.447 36.9311C142.919 36.9311 142.523 36.9988 142.062 37.0665V50.8062C140.61 51.077 139.092 51.2123 137.574 51.2123C124.047 51.2123 113.093 39.9092 113.093 26.034C113.093 12.1589 123.915 0.788086 137.508 0.788086C140.082 0.788086 142.589 1.26187 144.899 1.9387L137.64 9.45158L142.062 13.9864L157.635 29.9597L158.295 30.6365L161 33.5469Z" fill="#51525C"/>
<path d="M0.359863 18.3022L2.15927 17.4271C3.08467 19.589 5.29536 20.773 8.07159 20.773C11.0535 20.773 13.367 19.2287 13.367 16.552C13.367 13.6694 10.745 13.1032 7.91735 12.4855C4.62702 11.7649 0.925389 10.7869 0.925389 6.46297C0.925389 3.06564 4.1129 0.44043 7.86594 0.44043C11.002 0.44043 13.8297 1.9332 14.9607 4.81578L13.2127 5.69085C12.2359 3.58039 10.3337 2.39646 7.76312 2.39646C5.19254 2.39646 2.98185 4.09514 2.98185 6.36003C2.98185 9.24261 5.65525 9.80883 8.53429 10.4265C11.8246 11.1472 15.4748 12.1252 15.4748 16.5005C15.372 20.3612 12.1331 22.7805 8.02018 22.7805C4.5756 22.7805 1.54233 21.2362 0.359863 18.3022Z" fill="#51525C"/>
<path d="M19.0737 22.5743V0.749023H21.1302V10.7351H34.0345V0.749023H36.0909V22.5743H34.0345V12.6397H21.1302V22.5228H19.0737V22.5743Z" fill="#51525C"/>
<path d="M43.494 0.749023V22.5743H41.4375V0.749023H43.494Z" fill="#51525C"/>
<path d="M47.1958 22.574L50.3319 2.75623C50.589 1.21199 51.72 0.336914 53.1081 0.336914C54.342 0.336914 55.4216 0.954616 55.8329 2.34443L60.5114 18.9193C60.6142 19.434 60.717 19.5885 61.0255 19.5885C61.2825 19.5885 61.4368 19.3826 61.5396 18.9193L66.2181 2.3959C66.6293 1.00609 67.709 0.336914 68.9429 0.336914C70.2796 0.336914 71.4106 1.16051 71.6677 2.8077L74.4953 22.4196H72.4388L69.7654 3.32245C69.6626 2.6018 69.5084 2.13853 68.8915 2.13853C68.4287 2.13853 68.1203 2.55033 67.966 3.2195L63.1334 19.8458C62.8763 20.8239 62.0023 21.3901 61.0769 21.3901C60.2029 21.3901 59.2775 20.8753 59.0204 19.8973L54.1878 3.16803C53.9821 2.49885 53.7251 2.13853 53.3138 2.13853C52.8511 2.13853 52.4912 2.55033 52.3884 3.32245L49.4579 22.4711H47.35V22.574H47.1958Z" fill="#51525C"/>
<path d="M82.1556 3.01389C82.7211 1.21227 84.0064 0.388672 85.6516 0.388672C87.2453 0.388672 88.582 1.21227 89.1475 3.01389L95.2655 22.5228H93.1576L91.3068 16.4488L80.0991 16.5003L78.1455 22.5228H76.0376L82.1556 3.01389ZM80.6132 14.5442H90.6899L87.3481 3.68305C87.0911 2.80798 86.5255 2.34471 85.703 2.34471C84.829 2.34471 84.3149 2.80798 84.0578 3.68305L80.6132 14.5442Z" fill="#51525C"/>
<path d="M0 40.3729C0 34.1444 4.88408 29.1514 10.8478 29.1514C14.498 29.1514 17.737 31.0045 19.485 33.99L17.8398 34.968C16.4003 32.5487 13.7783 31.0559 10.8992 31.0559C6.16937 31.0559 2.21069 35.1224 2.21069 40.3214C2.21069 45.5718 6.11796 49.6383 10.8992 49.6383C13.7783 49.6383 16.4003 48.197 17.8398 45.7777L19.485 46.8072C17.737 49.8442 14.5494 51.6458 10.8478 51.6458C4.88408 51.6458 0 46.7043 0 40.3729Z" fill="#51525C"/>
<path d="M25.7056 31.7766C26.2712 29.975 27.5564 29.1514 29.2016 29.1514C30.8468 29.1514 32.1321 29.975 32.6976 31.7766L38.8156 51.2855H36.7077L34.8569 45.2115L23.6492 45.263L21.6955 51.2855H19.5876L25.7056 31.7766ZM24.1119 43.3069H34.1885L30.8468 32.4457C30.5897 31.5707 30.0242 31.1074 29.2016 31.1074C28.3276 31.1074 27.8135 31.5707 27.5564 32.4457L24.1119 43.3069Z" fill="#51525C"/>
<path d="M41.9004 51.337V29.5117H48.1726C53.725 29.5117 57.5295 31.9825 57.5295 37.027C57.5295 42.2775 53.5708 44.5938 48.224 44.5938H43.9569V51.337H41.9004ZM43.9569 31.4678V42.6378H48.1726C52.1827 42.6378 55.3188 41.0421 55.3188 37.027C55.3188 33.1664 52.3883 31.4678 48.1726 31.4678H43.9569Z" fill="#51525C"/>
<path d="M62.4649 29.5117V51.337H60.4084V29.5117H62.4649Z" fill="#51525C"/>
<path d="M80.5104 31.4678H73.5699V51.337H71.5134V31.4678H64.6243V29.5117H80.5104V31.4678Z" fill="#51525C"/>
<path d="M85.2403 31.7766C85.8058 29.975 87.0911 29.1514 88.7363 29.1514C90.3814 29.1514 91.6667 29.975 92.2322 31.7766L98.3502 51.2855H96.1909L94.3401 45.2115L83.1324 45.263L81.2302 51.337H79.1223L85.2403 31.7766ZM83.6465 43.3069H93.7232L90.3814 32.4457C90.1244 31.5707 89.5588 31.1074 88.7363 31.1074C87.8623 31.1074 87.3482 31.5707 87.0911 32.4457L83.6465 43.3069Z" fill="#51525C"/>
<path d="M103.491 49.381H114.853V51.337H103.491C101.949 51.337 101.435 50.5649 101.435 49.278V29.5117H103.491V49.381Z" fill="#51525C"/>
</g>
<defs>
<clipPath id="clip0_31_961">
<rect width="161" height="52" fill="white"/>
</clipPath>
</defs>
</svg>
