<svg width="125" height="79" viewBox="0 0 125 79" fill="none" xmlns="http://www.w3.org/2000/svg">
<path d="M1.30606 73.0562V71.308H6.95323V73.0562H1.30606ZM6.21504 78.7056V65.6401H8.3558V78.7056H6.21504ZM0.567871 78.7056V65.6401H2.70863V78.7056H0.567871Z" fill="#51525C"/>
<path d="M11.8436 76.2949V74.5467H16.5496V76.2949H11.8436ZM14.9625 65.6401L11.7329 78.7056H9.64749L12.8771 65.6401H14.9625ZM14.9994 65.6401L18.2105 78.7056H16.1251L12.914 65.6401H14.9994Z" fill="#51525C"/>
<path d="M20.9169 78.7056V76.9574H25.5121V78.7056H20.9169ZM19.3298 78.7056V65.6401H21.4705V78.7056H19.3298Z" fill="#51525C"/>
<path d="M28.4139 78.7056L31.625 65.6401H33.7104L30.4993 78.7056H28.4139ZM28.377 78.7056L25.1474 65.6401H27.2328L30.4624 78.7056H28.377Z" fill="#51525C"/>
<path d="M34.834 78.7056V65.6401H36.9747V78.7056H34.834Z" fill="#51525C"/>
<path d="M44.7025 78.7056L39.4798 65.6401H41.436L46.6403 78.7056H44.7025ZM39.0923 78.7056V65.6401H41.233V78.7056H39.0923ZM45.2377 78.7056V65.6401H47.3785V78.7056H45.2377Z" fill="#51525C"/>
<path d="M52.7366 73.3506V71.6208H56.7782V73.3506H52.7366ZM54.6374 75.43V71.676H56.7782V75.43H54.6374ZM49.0456 75.4116V68.9157H51.1864V75.4116H49.0456ZM49.0456 68.9341C49.0456 68.2348 49.2117 67.6153 49.5439 67.0755C49.8761 66.5357 50.3313 66.1125 50.9096 65.8058C51.5001 65.4991 52.1706 65.3457 52.9211 65.3457V67.0755C52.3798 67.0755 51.9553 67.2411 51.6477 67.5724C51.3402 67.8913 51.1864 68.3452 51.1864 68.9341H49.0456ZM49.0456 75.4116H51.1864C51.1864 75.9882 51.3402 76.4421 51.6477 76.7734C51.9553 77.0923 52.3798 77.2518 52.9211 77.2518V79C52.1706 79 51.5001 78.8467 50.9096 78.54C50.3313 78.2333 49.8761 77.81 49.5439 77.2702C49.2117 76.7304 49.0456 76.1109 49.0456 75.4116ZM54.9327 69.4494C54.8712 68.7133 54.662 68.1367 54.3052 67.7196C53.9484 67.2902 53.4809 67.0755 52.9027 67.0755V65.3457C54.0223 65.3457 54.9327 65.6769 55.634 66.3394C56.3353 66.9896 56.7474 67.9097 56.8705 69.0997L54.9327 69.4494ZM56.7782 75.4116C56.7782 76.1109 56.6121 76.7304 56.2799 77.2702C55.9477 77.81 55.4925 78.2333 54.9142 78.54C54.336 78.8467 53.6655 79 52.9027 79V77.2518C53.444 77.2518 53.8685 77.0923 54.1761 76.7734C54.4836 76.4421 54.6374 75.9882 54.6374 75.4116H56.7782Z" fill="#51525C"/>
<path d="M63.8703 75.6877C63.8703 75.2583 63.7411 74.8841 63.4828 74.5651C63.2244 74.2339 62.8861 73.9211 62.4677 73.6266C62.0617 73.3322 61.625 73.0378 61.1575 72.7433C60.6899 72.4366 60.247 72.0993 59.8287 71.7312C59.4227 71.3509 59.0844 70.9093 58.8137 70.4063C58.5553 69.9033 58.4261 69.3144 58.4261 68.6397H60.5669C60.5669 69.0568 60.6961 69.431 60.9544 69.7622C61.2251 70.0934 61.5635 70.4063 61.9695 70.7007C62.3878 70.9951 62.8307 71.2957 63.2982 71.6024C63.7657 71.8968 64.2025 72.2342 64.6085 72.6145C65.0268 72.9826 65.3652 73.4181 65.6235 73.9211C65.8819 74.4118 66.0111 75.0006 66.0111 75.6877H63.8703ZM58.4261 68.6581C58.4261 67.9956 58.5922 67.419 58.9244 66.9283C59.2566 66.4253 59.7118 66.0388 60.2901 65.769C60.8806 65.4868 61.5512 65.3457 62.3017 65.3457V67.0939C61.7603 67.0939 61.3358 67.235 61.0283 67.5171C60.7207 67.787 60.5669 68.1674 60.5669 68.6581H58.4261ZM66.0111 75.6693C66.0111 76.344 65.845 76.9267 65.5128 77.4174C65.1806 77.9082 64.7254 78.2946 64.1471 78.5768C63.5689 78.8467 62.8984 78.9816 62.1356 78.9816V77.2518C62.6769 77.2518 63.1014 77.1107 63.4089 76.8286C63.7165 76.5464 63.8703 76.16 63.8703 75.6693H66.0111ZM63.8703 68.6397C63.8088 68.1244 63.6304 67.738 63.3351 67.4803C63.0521 67.2227 62.7077 67.0939 62.3017 67.0939V65.3457C62.9291 65.3457 63.4889 65.4684 63.981 65.7137C64.4732 65.9591 64.873 66.3026 65.1806 66.7443C65.5005 67.1736 65.7035 67.6828 65.7896 68.2716L63.8703 68.6397ZM60.1055 74.878C60.167 75.614 60.3762 76.1968 60.733 76.6262C61.0898 77.0433 61.5573 77.2518 62.1356 77.2518V78.9816C61.016 78.9816 60.1055 78.6504 59.4042 77.9879C58.7153 77.3254 58.3031 76.4053 58.1678 75.2276L60.1055 74.878Z" fill="#51525C"/>
<path d="M70.4662 75.4116V68.9157H72.6069V75.4116H70.4662ZM70.4662 68.9341C70.4662 68.2348 70.6323 67.6153 70.9644 67.0755C71.2966 66.5357 71.7519 66.1125 72.3301 65.8058C72.9207 65.4991 73.5912 65.3457 74.3417 65.3457V67.0755C73.8003 67.0755 73.3759 67.2411 73.0683 67.5724C72.7607 67.8913 72.6069 68.3452 72.6069 68.9341H70.4662ZM70.4662 75.4116H72.6069C72.6069 75.9882 72.7607 76.4421 73.0683 76.7734C73.3759 77.0923 73.8003 77.2518 74.3417 77.2518V79C73.5912 79 72.9207 78.8467 72.3301 78.54C71.7519 78.2333 71.2966 77.81 70.9644 77.2702C70.6323 76.7304 70.4662 76.1109 70.4662 75.4116ZM76.3533 69.4494C76.2917 68.7133 76.0826 68.1367 75.7258 67.7196C75.369 67.2902 74.9015 67.0755 74.3232 67.0755V65.3457C75.4428 65.3457 76.3533 65.6769 77.0545 66.3394C77.7558 66.9896 78.168 67.9097 78.291 69.0997L76.3533 69.4494ZM76.3533 74.878L78.291 75.246C78.168 76.4237 77.7558 77.3438 77.0545 78.0063C76.3533 78.6688 75.4428 79 74.3232 79V77.2518C74.9015 77.2518 75.369 77.0433 75.7258 76.6262C76.0826 76.209 76.2917 75.6263 76.3533 74.878Z" fill="#51525C"/>
<path d="M81.1335 76.2949V74.5467H85.8395V76.2949H81.1335ZM84.2523 65.6401L81.0228 78.7056H78.9374L82.167 65.6401H84.2523ZM84.2893 65.6401L87.5004 78.7056H85.415L82.2039 65.6401H84.2893Z" fill="#51525C"/>
<path d="M90.299 67.3699V65.6401H91.8677V67.3699H90.299ZM90.299 73.8475V72.1177H91.8677V73.8475H90.299ZM93.584 70.2775V69.2101H95.7247V70.2775H93.584ZM95.7247 69.2285H93.584C93.584 68.6397 93.4302 68.1858 93.1226 67.8668C92.815 67.5355 92.3906 67.3699 91.8492 67.3699V65.6401C92.612 65.6401 93.2826 65.7935 93.8608 66.1002C94.4391 66.4069 94.8943 66.8301 95.2265 67.3699C95.5587 67.9097 95.7247 68.5293 95.7247 69.2285ZM95.7247 70.259C95.7247 70.9583 95.5587 71.5779 95.2265 72.1177C94.8943 72.6575 94.4391 73.0807 93.8608 73.3874C93.2826 73.6941 92.612 73.8475 91.8492 73.8475V72.1177C92.3906 72.1177 92.815 71.9582 93.1226 71.6392C93.4302 71.308 93.584 70.8479 93.584 70.259H95.7247ZM88.6196 78.7056V65.6401H90.7604V78.7056H88.6196Z" fill="#51525C"/>
<path d="M97.1939 78.7056V65.6401H99.3347V78.7056H97.1939Z" fill="#51525C"/>
<path d="M100.624 67.3699V65.6401H108.744V67.3699H100.624ZM103.614 78.7056V65.6401H105.754V78.7056H103.614Z" fill="#51525C"/>
<path d="M110.764 76.2949V74.5467H115.47V76.2949H110.764ZM113.882 65.6401L110.653 78.7056H108.567L111.797 65.6401H113.882ZM113.919 65.6401L117.13 78.7056H115.045L111.834 65.6401H113.919Z" fill="#51525C"/>
<path d="M119.837 78.7056V76.9574H124.432V78.7056H119.837ZM118.25 78.7056V65.6401H120.39V78.7056H118.25Z" fill="#51525C"/>
<path fill-rule="evenodd" clip-rule="evenodd" d="M30.1101 4.757C30.1101 2.12978 32.2489 0 34.8872 0H56.3843C59.0226 0 61.1614 2.12978 61.1614 4.757V21.9214C61.1614 22.5128 60.682 22.9922 60.0907 22.9922H52.6779C52.0865 22.9922 51.6071 22.5128 51.6071 21.9214V10.5847C51.6071 9.99338 51.1278 9.514 50.5364 9.514H40.7351C40.1437 9.514 39.6643 9.99338 39.6643 10.5847V41.3459C39.6643 41.9372 40.1437 42.4166 40.7351 42.4166H50.5364C51.1278 42.4166 51.6071 41.9372 51.6071 41.3459V29.8109C51.6071 29.2196 52.0865 28.7402 52.6779 28.7402H60.0907C60.682 28.7402 61.1614 29.2196 61.1614 29.8109V47.1736C61.1614 49.8008 59.0226 51.9306 56.3843 51.9306H34.8872C32.2489 51.9306 30.1101 49.8008 30.1101 47.1736V4.757Z" fill="#51525C"/>
<path fill-rule="evenodd" clip-rule="evenodd" d="M95.4249 4.757C95.4249 2.12978 93.2861 0 90.6477 0H69.1507C66.5124 0 64.3736 2.12978 64.3736 4.757V21.9214C64.3736 22.5128 64.853 22.9922 65.4443 22.9922H72.8571C73.4484 22.9922 73.9278 22.5128 73.9278 21.9214V10.5847C73.9278 9.99338 74.4072 9.514 74.9986 9.514H84.7999C85.3912 9.514 85.8706 9.99338 85.8706 10.5847V41.3459C85.8706 41.9372 85.3912 42.4166 84.7999 42.4166H74.9986C74.4072 42.4166 73.9278 41.9372 73.9278 41.3459V29.8109C73.9278 29.2196 73.4484 28.7402 72.8571 28.7402H65.4443C64.853 28.7402 64.3736 29.2196 64.3736 29.8109V47.1736C64.3736 49.8008 66.5124 51.9306 69.1507 51.9306H90.6477C93.2861 51.9306 95.4249 49.8008 95.4249 47.1736V4.757Z" fill="#51525C"/>
</svg>
