<svg width="145" height="72" viewBox="0 0 145 72" fill="none" xmlns="http://www.w3.org/2000/svg">
<path d="M61.7935 0H59.7906V30.0574H65.253V29.1439C63.7845 29.1302 62.9713 29.0443 62.4335 28.5063C61.7935 27.8661 61.7935 26.8355 61.7935 24.7746V0Z" fill="#51525C"/>
<path d="M51.9612 0H57.4236V30.0574H51.9612V29.144C53.4297 29.1302 54.2429 29.0444 54.7807 28.5063C55.4207 27.866 55.4207 26.8356 55.4207 24.7746V5.46498C55.4207 3.40401 55.4207 2.37352 54.7807 1.73326C54.2429 1.1952 53.4297 1.10931 51.9612 1.0956V0Z" fill="#51525C"/>
<path d="M92.565 0H87.1026V30.0574H92.565V29.144C91.0965 29.1302 90.2833 29.0444 89.7455 28.5063C89.1055 27.866 89.1055 26.8356 89.1055 24.7746V5.46498C89.1055 3.40401 89.1055 2.37352 89.7455 1.73326C90.2833 1.1952 91.0965 1.10931 92.565 1.0956V0Z" fill="#51525C"/>
<path d="M82.7327 0H84.7356V30.0574H79.2732V29.144C80.7417 29.1302 81.5549 29.0444 82.0927 28.5063C82.7327 27.866 82.7327 26.8356 82.7327 24.7746V0Z" fill="#51525C"/>
<path d="M72.1721 10.3835L61.7935 0V3.64332L72.1721 14.0268V10.3835Z" fill="#51525C"/>
<path d="M72.3541 10.3835L82.7327 0V3.64332L72.3541 14.0268V10.3835Z" fill="#51525C"/>
<path d="M21.0566 53.9614V68.3266C21.0566 68.9609 21.2152 69.3906 21.5324 69.6157C21.8598 69.8511 22.4635 69.9994 23.3434 70.0608V70.9356C20.5808 70.8333 17.8285 70.8333 15.0865 70.9356V70.0608C15.9562 69.9994 16.5547 69.8511 16.8821 69.6157C17.2095 69.3804 17.3732 68.9507 17.3732 68.3266V54.6213L11.3417 70.9356H10.9273L4.29727 54.6213V68.3266C4.29727 68.9098 4.53259 69.3241 5.00325 69.5697C5.4739 69.805 6.28731 69.9687 7.44348 70.0608V70.9356C4.90605 70.8231 2.42489 70.8231 0 70.9356V70.0608C1.12547 69.9687 1.91331 69.805 2.3635 69.5697C2.81369 69.3241 3.03878 68.9098 3.03878 68.3266V54.3144C3.03878 53.0968 2.15887 52.4267 0.399032 52.3039V51.4137C2.47604 51.5263 4.55306 51.5263 6.63007 51.4137L12.2472 65.1803L17.3119 51.4137C19.307 51.4854 21.3073 51.4854 23.3127 51.4137V52.3039C22.443 52.3653 21.8496 52.5136 21.5324 52.749C21.2152 52.9741 21.0566 53.3782 21.0566 53.9614Z" fill="#51525C"/>
<path d="M37.6011 59.8088V67.7587C37.6011 68.4442 37.7546 68.9405 38.0615 69.2474C38.3685 69.5544 38.8545 69.7181 39.5195 69.7385V70.6594C37.8825 70.731 36.3221 70.951 34.8386 71.3193C34.4907 71.2068 34.2502 70.9765 34.1172 70.6287L34.2707 68.3573H34.0865C33.6773 69.0632 33.0429 69.7334 32.1835 70.3678C31.3036 71.0021 30.2395 71.3193 28.9912 71.3193C27.8248 71.3193 26.8017 70.997 25.9217 70.3524C25.052 69.6976 24.6172 68.6847 24.6172 67.3136C24.6172 65.8812 25.2976 64.6995 26.6584 63.7684C28.0294 62.8271 30.4953 61.9676 34.0559 61.19V59.7474C34.0559 58.2536 33.9126 57.2355 33.6261 56.6932C33.3396 56.1305 32.736 55.8491 31.8151 55.8491C30.9045 55.8491 30.2446 56.0998 29.8353 56.6012C29.4158 57.1127 29.1856 57.6601 29.1447 58.2433C29.0935 58.8368 28.9298 59.379 28.6536 59.8702C28.3773 60.3715 27.9015 60.6222 27.2263 60.6222C26.1417 60.6222 25.5994 60.1004 25.5994 59.0567C25.5994 57.9006 26.2901 56.9235 27.6713 56.1254C29.0424 55.3171 30.7817 54.9129 32.8894 54.9129C34.5777 54.9129 35.7799 55.2711 36.4961 55.9873C37.2328 56.6932 37.6011 57.9671 37.6011 59.8088ZM30.5566 69.7385C31.3547 69.7385 32.0709 69.4213 32.7053 68.787C33.3396 68.1526 33.7898 67.5285 34.0559 66.9146V62.0341C30.1985 62.955 28.2699 64.6227 28.2699 67.0374C28.2699 67.8661 28.4796 68.5261 28.8991 69.0172C29.3186 69.4981 29.8711 69.7385 30.5566 69.7385Z" fill="#51525C"/>
<path d="M50.631 54.8362C51.4496 54.8362 52.1044 55.0306 52.5955 55.4194C53.0866 55.8082 53.3322 56.3198 53.3322 56.9541C53.3322 57.435 53.1838 57.8289 52.8871 58.1359C52.6006 58.4326 52.2272 58.581 51.7667 58.581C51.3063 58.581 50.805 58.3405 50.2627 57.8596C49.7204 57.3788 49.2344 57.1383 48.8047 57.1383C48.0885 57.1383 47.5002 57.5067 47.0397 58.2433C46.5896 58.9698 46.3184 59.6195 46.2263 60.1924V68.8944C46.2263 69.4981 46.917 69.8869 48.2982 70.0608V70.9356C45.7403 70.8128 43.2285 70.8128 40.7627 70.9356V70.0608C42.0211 69.9278 42.6504 69.539 42.6504 68.8944V58.8419C42.6504 58.2894 42.4969 57.9108 42.19 57.7062C41.8932 57.4913 41.4175 57.4299 40.7627 57.522V56.6319C42.5634 56.3044 44.1544 55.7059 45.5357 54.8362C45.8938 54.959 46.1342 55.2045 46.257 55.5729L45.5664 59.0874H45.7659C46.8709 56.2533 48.4926 54.8362 50.631 54.8362Z" fill="#51525C"/>
<path d="M65.9324 66.7304C65.9324 68.0401 65.4208 69.1297 64.3976 69.9994C63.3745 70.8793 62.1978 71.3193 60.8677 71.3193C60.1208 71.3193 59.2972 71.1351 58.3968 70.7668C57.4964 70.3985 56.9286 70.2143 56.6932 70.2143C56.2737 70.2143 56.0333 70.4547 55.9719 70.9356H54.959L54.606 66.623H55.4961C55.7826 67.6666 56.4528 68.5414 57.5067 69.2474C58.5503 69.9534 59.5581 70.3064 60.5301 70.3064C61.2361 70.3064 61.7988 70.0966 62.2183 69.6771C62.6378 69.2576 62.8475 68.7051 62.8475 68.0196C62.8475 67.242 62.5713 66.6128 62.0188 66.1319C61.456 65.651 60.5301 65.0831 59.2409 64.4283C58.6475 64.1316 58.0796 63.8298 57.5373 63.5228C57.0974 63.2568 56.6165 62.9038 56.0947 62.4639C55.0818 61.5942 54.5753 60.5199 54.5753 59.2409C54.5753 58.0131 55.0306 56.99 55.9412 56.1714C56.8723 55.3529 58.0336 54.9436 59.4251 54.9436C60.172 54.9436 60.9035 55.092 61.6198 55.3887C62.3257 55.6752 62.7657 55.8184 62.9396 55.8184C63.3591 55.8184 63.6303 55.6087 63.753 55.1892H64.6739L64.9501 59.3023H64.1367C63.6865 58.1768 63.0624 57.3276 62.2643 56.7546C61.4561 56.1714 60.6324 55.8798 59.7934 55.8798C59.0977 55.8798 58.54 56.0845 58.1206 56.4937C57.7113 56.8928 57.5067 57.4197 57.5067 58.0745C57.5067 58.7498 57.7369 59.3176 58.1973 59.7781C58.6372 60.218 59.3688 60.6989 60.392 61.2207C60.4124 61.231 60.6733 61.3588 61.1747 61.6044C61.6658 61.8397 61.9779 61.9983 62.1109 62.0802C62.1927 62.1211 62.4843 62.2848 62.9857 62.5713C63.3847 62.7862 63.6917 62.9908 63.9065 63.1852L64.6739 63.8605C64.9911 64.1367 65.2213 64.413 65.3645 64.6892C65.7431 65.385 65.9324 66.0654 65.9324 66.7304Z" fill="#51525C"/>
<path d="M82.5536 60.2845V68.8944C82.5536 69.5185 83.1931 69.9073 84.472 70.0608V70.9356C82.0164 70.864 79.5557 70.864 77.0899 70.9356V70.0608C78.3689 69.9483 79.0083 69.5595 79.0083 68.8944V60.3152C79.0083 57.7983 78.1693 56.5398 76.4914 56.5398C75.5705 56.5398 74.7673 56.8979 74.0818 57.6141C73.3963 58.3303 72.9717 59.0619 72.808 59.8088V68.8944C72.808 69.5185 73.4475 69.9073 74.7264 70.0608V70.9356C72.2708 70.8128 69.8101 70.8128 67.3443 70.9356V70.0608C68.6028 69.9278 69.2321 69.539 69.2321 68.8944V52.7643C69.2321 51.7309 68.6233 51.3012 67.4057 51.4751V50.6003C69.2167 50.2627 70.8384 49.6641 72.2708 48.8047C72.588 48.9275 72.8336 49.1679 73.0075 49.526C72.895 50.2115 72.8285 51.6184 72.808 53.7465V56.6319L72.5317 58.581C72.8898 57.8852 73.4526 57.1383 74.22 56.3403C74.6599 55.8798 75.2226 55.5166 75.9082 55.2506C76.6039 54.9743 77.3304 54.8362 78.0875 54.8362C79.3664 54.8362 80.4305 55.2455 81.2798 56.064C82.129 56.8825 82.5536 58.2894 82.5536 60.2845Z" fill="#51525C"/>
<path d="M90.5496 53.7465V68.8944C90.5496 69.5185 91.189 69.9073 92.468 70.0608V70.9356C90.0124 70.8128 87.5517 70.8128 85.0859 70.9356V70.0608C86.3444 69.9278 86.9736 69.539 86.9736 68.8944V52.7643C86.9736 51.7309 86.3649 51.3012 85.1473 51.4751V50.6003C86.9583 50.2627 88.58 49.6641 90.0124 48.8047C90.3296 48.9275 90.5751 49.1679 90.7491 49.526C90.6365 50.2115 90.57 51.6184 90.5496 53.7465Z" fill="#51525C"/>
<path d="M106.879 59.8088V67.7587C106.879 68.4442 107.033 68.9405 107.34 69.2474C107.647 69.5544 108.133 69.7181 108.798 69.7385V70.6594C107.161 70.731 105.6 70.951 104.117 71.3193C103.769 71.2068 103.528 70.9765 103.395 70.6287L103.549 68.3573H103.365C102.955 69.0632 102.321 69.7334 101.462 70.3678C100.582 71.0021 99.5176 71.3193 98.2693 71.3193C97.1029 71.3193 96.0798 70.997 95.1998 70.3524C94.3301 69.6976 93.8953 68.6847 93.8953 67.3136C93.8953 65.8812 94.5757 64.6995 95.9365 63.7684C97.3075 62.8271 99.7734 61.9676 103.334 61.19V59.7474C103.334 58.2536 103.191 57.2355 102.904 56.6932C102.618 56.1305 102.014 55.8491 101.093 55.8491C100.183 55.8491 99.5227 56.0998 99.1134 56.6012C98.6939 57.1127 98.4637 57.6601 98.4228 58.2433C98.3716 58.8368 98.2079 59.379 97.9317 59.8702C97.6554 60.3715 97.1796 60.6222 96.5044 60.6222C95.4198 60.6222 94.8775 60.1004 94.8775 59.0567C94.8775 57.9006 95.5682 56.9235 96.9494 56.1254C98.3205 55.3171 100.06 54.9129 102.168 54.9129C103.856 54.9129 105.058 55.2711 105.774 55.9873C106.511 56.6932 106.879 57.9671 106.879 59.8088ZM99.8347 69.7385C100.633 69.7385 101.349 69.4213 101.983 68.787C102.618 68.1526 103.068 67.5285 103.334 66.9146V62.0341C99.4766 62.955 97.548 64.6227 97.548 67.0374C97.548 67.8661 97.7577 68.5261 98.1772 69.0172C98.5967 69.4981 99.1492 69.7385 99.8347 69.7385Z" fill="#51525C"/>
<path d="M125.097 60.2845V68.8944C125.097 69.5185 125.736 69.9073 127.015 70.0608V70.9356C124.559 70.864 122.099 70.864 119.633 70.9356V70.0608C120.912 69.9483 121.551 69.5595 121.551 68.8944V60.3152C121.551 57.7983 120.712 56.5398 119.034 56.5398C118.113 56.5398 117.315 56.8979 116.64 57.6141C115.985 58.3201 115.556 59.0516 115.351 59.8088V68.8944C115.351 69.5595 115.99 69.9483 117.269 70.0608V70.9356C114.814 70.8538 112.363 70.8538 109.918 70.9356V70.0608C111.176 69.9278 111.806 69.539 111.806 68.8944V58.8419C111.806 57.788 111.166 57.3481 109.887 57.522V56.6319C111.749 56.2942 113.34 55.6957 114.66 54.8362C114.967 54.9385 115.208 55.1841 115.382 55.5729L114.875 58.581H115.044C115.33 57.9364 115.898 57.1895 116.748 56.3403C117.208 55.8798 117.781 55.5166 118.466 55.2506C119.152 54.9743 119.873 54.8362 120.63 54.8362C121.909 54.8362 122.973 55.2455 123.823 56.064C124.672 56.8825 125.097 58.2894 125.097 60.2845Z" fill="#51525C"/>
<path d="M142.408 53.7465V67.7587C142.408 68.4442 142.562 68.9405 142.869 69.2474C143.176 69.5544 143.657 69.7181 144.311 69.7385V70.6594C142.695 70.731 141.135 70.951 139.631 71.3193C139.252 71.1863 139.032 70.9561 138.971 70.6287L139.293 68.6335H139.063C138.766 69.3395 138.259 69.9585 137.543 70.4905C136.848 71.0226 135.942 71.2886 134.827 71.2886C132.965 71.2886 131.348 70.557 129.977 69.0939C128.616 67.6308 127.936 65.6254 127.936 63.0778C127.936 60.5608 128.626 58.5707 130.008 57.1076C131.409 55.6445 133.026 54.9129 134.857 54.9129C136.556 54.9129 137.886 55.5729 138.848 56.8928V52.7643C138.848 51.7412 138.229 51.3114 136.991 51.4751V50.6003C138.832 50.2832 140.459 49.6846 141.871 48.8047C142.229 48.9275 142.47 49.1679 142.593 49.526C142.47 50.2422 142.408 51.6491 142.408 53.7465ZM138.848 67.1909V58.1052C138.49 57.5015 137.988 56.9848 137.344 56.5551C136.709 56.1254 136.029 55.9105 135.303 55.9105C134.167 55.9105 133.282 56.4579 132.647 57.5527C132.023 58.6372 131.711 60.1771 131.711 62.1723C131.711 64.4744 132.08 66.3928 132.816 67.9275C133.553 69.452 134.515 70.2143 135.702 70.2143C136.5 70.2143 137.18 69.9022 137.743 69.2781C138.306 68.654 138.674 67.9582 138.848 67.1909Z" fill="#51525C"/>
</svg>
