<svg width="2141" height="1742" viewBox="0 0 2141 1742" fill="none" xmlns="http://www.w3.org/2000/svg">
<path d="M440.174 1L2.00007 759.939" stroke="#D5F430" stroke-width="3"/>
<path d="M445.37 4L7.19612 762.939" stroke="#D5F430" stroke-width="3"/>
<path d="M450.566 7L12.3924 765.939" stroke="#D5F430" stroke-width="3"/>
<path d="M455.762 10L17.5884 768.939" stroke="#D5F430" stroke-width="3"/>
<path d="M460.958 13L22.7847 771.939" stroke="#D5F430" stroke-width="3"/>
<path d="M466.155 16L27.9808 774.939" stroke="#D5F430" stroke-width="3"/>
<path d="M471.351 19L33.1771 777.939" stroke="#D5F430" stroke-width="3"/>
<path d="M476.547 22L38.3731 780.939" stroke="#D5F430" stroke-width="3"/>
<path d="M481.743 25L43.5694 783.939" stroke="#D5F430" stroke-width="3"/>
<path d="M486.939 28L48.7655 786.939" stroke="#D5F430" stroke-width="3"/>
<path d="M492.135 31L53.9615 789.939" stroke="#D5F430" stroke-width="3"/>
<path d="M497.332 34L59.1578 792.939" stroke="#D5F430" stroke-width="3"/>
<path d="M502.528 37L64.3538 795.939" stroke="#D5F430" stroke-width="3"/>
<path d="M507.724 40L69.5499 798.939" stroke="#D5F430" stroke-width="3"/>
<path d="M512.92 43L74.7462 801.939" stroke="#D5F430" stroke-width="3"/>
<path d="M518.116 46L79.9422 804.939" stroke="#D5F430" stroke-width="3"/>
<path d="M523.312 49L85.1385 807.939" stroke="#D5F430" stroke-width="3"/>
<path d="M528.508 52L90.3345 810.939" stroke="#D5F430" stroke-width="3"/>
<path d="M533.705 55L95.5308 813.939" stroke="#D5F430" stroke-width="3"/>
<path d="M538.901 58L100.727 816.939" stroke="#D5F430" stroke-width="3"/>
<path d="M544.097 61L105.923 819.939" stroke="#D5F430" stroke-width="3"/>
<path d="M549.293 64L111.119 822.939" stroke="#D5F430" stroke-width="3"/>
<path d="M554.489 67L116.315 825.939" stroke="#D5F430" stroke-width="3"/>
<path d="M559.685 70L121.512 828.939" stroke="#D5F430" stroke-width="3"/>
<path d="M564.881 73L126.708 831.939" stroke="#D5F430" stroke-width="3"/>
<path d="M570.078 76L131.904 834.939" stroke="#D5F430" stroke-width="3"/>
<path d="M575.274 79L137.1 837.939" stroke="#D5F430" stroke-width="3"/>
<path d="M580.47 82L142.296 840.939" stroke="#D5F430" stroke-width="3"/>
<path d="M585.666 85L147.492 843.939" stroke="#D5F430" stroke-width="3"/>
<path d="M590.862 88L152.688 846.939" stroke="#D5F430" stroke-width="3"/>
<path d="M596.058 91L157.885 849.939" stroke="#D5F430" stroke-width="3"/>
<path d="M601.254 94L163.081 852.939" stroke="#D5F430" stroke-width="3"/>
<path d="M606.451 97L168.277 855.939" stroke="#D5F430" stroke-width="3"/>
<path d="M611.647 100L173.473 858.939" stroke="#D5F430" stroke-width="3"/>
<path d="M616.843 103L178.669 861.939" stroke="#D5F430" stroke-width="3"/>
<path d="M622.039 106L183.865 864.939" stroke="#D5F430" stroke-width="3"/>
<path d="M627.235 109L189.062 867.939" stroke="#D5F430" stroke-width="3"/>
<path d="M632.431 112L194.258 870.939" stroke="#D5F430" stroke-width="3"/>
<path d="M637.627 115L199.454 873.939" stroke="#D5F430" stroke-width="3"/>
<path d="M642.824 118L204.65 876.939" stroke="#D5F430" stroke-width="3"/>
<path d="M648.02 121L209.846 879.939" stroke="#D5F430" stroke-width="3"/>
<path d="M653.216 124L215.042 882.939" stroke="#D5F430" stroke-width="3"/>
<path d="M658.412 127L220.238 885.939" stroke="#D5F430" stroke-width="3"/>
<path d="M663.608 130L225.435 888.939" stroke="#D5F430" stroke-width="3"/>
<path d="M668.804 133L230.631 891.939" stroke="#D5F430" stroke-width="3"/>
<path d="M674.001 136L235.827 894.939" stroke="#D5F430" stroke-width="3"/>
<path d="M679.197 139L241.023 897.939" stroke="#D5F430" stroke-width="3"/>
<path d="M684.393 142L246.219 900.939" stroke="#D5F430" stroke-width="3"/>
<path d="M689.589 145L251.415 903.939" stroke="#D5F430" stroke-width="3"/>
<path d="M694.785 148L256.611 906.939" stroke="#D5F430" stroke-width="3"/>
<path d="M699.981 151L261.808 909.939" stroke="#D5F430" stroke-width="3"/>
<path d="M705.177 154L267.004 912.939" stroke="#D5F430" stroke-width="3"/>
<path d="M710.374 157L272.2 915.939" stroke="#D5F430" stroke-width="3"/>
<path d="M715.57 160L277.396 918.939" stroke="#D5F430" stroke-width="3"/>
<path d="M720.766 163L282.592 921.939" stroke="#D5F430" stroke-width="3"/>
<path d="M725.962 166L287.788 924.939" stroke="#D5F430" stroke-width="3"/>
<path d="M731.158 169L292.984 927.939" stroke="#D5F430" stroke-width="3"/>
<path d="M736.354 172L298.181 930.939" stroke="#D5F430" stroke-width="3"/>
<path d="M741.551 175L303.377 933.939" stroke="#D5F430" stroke-width="3"/>
<path d="M746.747 178L308.573 936.939" stroke="#D5F430" stroke-width="3"/>
<path d="M751.943 181L313.769 939.939" stroke="#D5F430" stroke-width="3"/>
<path d="M757.139 184L318.965 942.939" stroke="#D5F430" stroke-width="3"/>
<path d="M762.335 187L324.161 945.939" stroke="#D5F430" stroke-width="3"/>
<path d="M767.531 190L329.357 948.939" stroke="#D5F430" stroke-width="3"/>
<path d="M772.728 193L334.554 951.939" stroke="#D5F430" stroke-width="3"/>
<path d="M777.924 196L339.75 954.939" stroke="#D5F430" stroke-width="3"/>
<path d="M783.12 199L344.946 957.939" stroke="#D5F430" stroke-width="3"/>
<path d="M788.316 202L350.142 960.939" stroke="#D5F430" stroke-width="3"/>
<path d="M793.512 205L355.338 963.939" stroke="#D5F430" stroke-width="3"/>
<path d="M798.708 208L360.534 966.939" stroke="#D5F430" stroke-width="3"/>
<path d="M803.905 211L365.731 969.939" stroke="#D5F430" stroke-width="3"/>
<path d="M809.101 214L370.927 972.939" stroke="#D5F430" stroke-width="3"/>
<path d="M814.297 217L376.123 975.939" stroke="#D5F430" stroke-width="3"/>
<path d="M819.493 220L381.319 978.939" stroke="#D5F430" stroke-width="3"/>
<path d="M824.689 223L386.515 981.939" stroke="#D5F430" stroke-width="3"/>
<path d="M829.885 226L391.711 984.939" stroke="#D5F430" stroke-width="3"/>
<path d="M835.081 229L396.908 987.939" stroke="#D5F430" stroke-width="3"/>
<path d="M840.278 232L402.104 990.939" stroke="#D5F430" stroke-width="3"/>
<path d="M845.474 235L407.3 993.939" stroke="#D5F430" stroke-width="3"/>
<path d="M850.67 238L412.496 996.939" stroke="#D5F430" stroke-width="3"/>
<path d="M855.866 241L417.692 999.939" stroke="#D5F430" stroke-width="3"/>
<path d="M861.062 244L422.888 1002.94" stroke="#D5F430" stroke-width="3"/>
<path d="M866.258 247L428.085 1005.94" stroke="#D5F430" stroke-width="3"/>
<path d="M871.454 250L433.281 1008.94" stroke="#D5F430" stroke-width="3"/>
<path d="M876.651 253L438.477 1011.94" stroke="#D5F430" stroke-width="3"/>
<path d="M881.847 256L443.673 1014.94" stroke="#D5F430" stroke-width="3"/>
<path d="M887.043 259L448.869 1017.94" stroke="#D5F430" stroke-width="3"/>
<path d="M892.239 262L454.065 1020.94" stroke="#D5F430" stroke-width="3"/>
<path d="M897.435 265L459.261 1023.94" stroke="#D5F430" stroke-width="3"/>
<path d="M902.631 268L464.458 1026.94" stroke="#D5F430" stroke-width="3"/>
<path d="M907.827 271L469.654 1029.94" stroke="#D5F430" stroke-width="3"/>
<path d="M913.024 274L474.85 1032.94" stroke="#D5F430" stroke-width="3"/>
<path d="M918.22 277L480.046 1035.94" stroke="#D5F430" stroke-width="3"/>
<path d="M923.416 280L485.242 1038.94" stroke="#D5F430" stroke-width="3"/>
<path d="M928.612 283L490.438 1041.94" stroke="#D5F430" stroke-width="3"/>
<path d="M933.808 286L495.635 1044.94" stroke="#D5F430" stroke-width="3"/>
<path d="M939.004 289L500.831 1047.94" stroke="#D5F430" stroke-width="3"/>
<path d="M944.201 292L506.027 1050.94" stroke="#D5F430" stroke-width="3"/>
<path d="M949.397 295L511.223 1053.94" stroke="#D5F430" stroke-width="3"/>
<path d="M954.593 298L516.419 1056.94" stroke="#D5F430" stroke-width="3"/>
<path d="M959.789 301L521.615 1059.94" stroke="#D5F430" stroke-width="3"/>
<path d="M964.985 304L526.811 1062.94" stroke="#D5F430" stroke-width="3"/>
<path d="M970.181 307L532.008 1065.94" stroke="#D5F430" stroke-width="3"/>
<path d="M975.377 310L537.204 1068.94" stroke="#D5F430" stroke-width="3"/>
<path d="M980.574 313L542.4 1071.94" stroke="#D5F430" stroke-width="3"/>
<path d="M985.77 316L547.596 1074.94" stroke="#D5F430" stroke-width="3"/>
<path d="M990.966 319L552.792 1077.94" stroke="#D5F430" stroke-width="3"/>
<path d="M996.162 322L557.988 1080.94" stroke="#D5F430" stroke-width="3"/>
<path d="M1001.36 325L563.185 1083.94" stroke="#D5F430" stroke-width="3"/>
<path d="M1006.55 328L568.381 1086.94" stroke="#D5F430" stroke-width="3"/>
<path d="M1011.75 331L573.577 1089.94" stroke="#D5F430" stroke-width="3"/>
<path d="M1016.95 334L578.773 1092.94" stroke="#D5F430" stroke-width="3"/>
<path d="M1022.14 337L583.969 1095.94" stroke="#D5F430" stroke-width="3"/>
<path d="M1027.34 340L589.165 1098.94" stroke="#D5F430" stroke-width="3"/>
<path d="M1032.54 343L594.361 1101.94" stroke="#D5F430" stroke-width="3"/>
<path d="M1037.73 346L599.558 1104.94" stroke="#D5F430" stroke-width="3"/>
<path d="M1042.93 349L604.754 1107.94" stroke="#D5F430" stroke-width="3"/>
<path d="M1048.12 352L609.95 1110.94" stroke="#D5F430" stroke-width="3"/>
<path d="M1053.32 355L615.146 1113.94" stroke="#D5F430" stroke-width="3"/>
<path d="M1058.52 358L620.342 1116.94" stroke="#D5F430" stroke-width="3"/>
<path d="M1063.71 361L625.538 1119.94" stroke="#D5F430" stroke-width="3"/>
<path d="M1068.91 364L630.734 1122.94" stroke="#D5F430" stroke-width="3"/>
<path d="M1074.1 367L635.931 1125.94" stroke="#D5F430" stroke-width="3"/>
<path d="M1079.3 370L641.127 1128.94" stroke="#D5F430" stroke-width="3"/>
<path d="M1084.5 373L646.323 1131.94" stroke="#D5F430" stroke-width="3"/>
<path d="M1089.69 376L651.519 1134.94" stroke="#D5F430" stroke-width="3"/>
<path d="M1094.89 379L656.715 1137.94" stroke="#D5F430" stroke-width="3"/>
<path d="M1100.09 382L661.911 1140.94" stroke="#D5F430" stroke-width="3"/>
<path d="M1105.28 385L667.107 1143.94" stroke="#D5F430" stroke-width="3"/>
<path d="M1110.48 388L672.304 1146.94" stroke="#D5F430" stroke-width="3"/>
<path d="M1115.67 391L677.5 1149.94" stroke="#D5F430" stroke-width="3"/>
<path d="M1120.87 394L682.696 1152.94" stroke="#D5F430" stroke-width="3"/>
<path d="M1126.07 397L687.892 1155.94" stroke="#D5F430" stroke-width="3"/>
<path d="M1131.26 400L693.088 1158.94" stroke="#D5F430" stroke-width="3"/>
<path d="M1136.46 403L698.284 1161.94" stroke="#D5F430" stroke-width="3"/>
<path d="M1141.65 406L703.481 1164.94" stroke="#D5F430" stroke-width="3"/>
<path d="M1146.85 409L708.677 1167.94" stroke="#D5F430" stroke-width="3"/>
<path d="M1152.05 412L713.873 1170.94" stroke="#D5F430" stroke-width="3"/>
<path d="M1157.24 415L719.069 1173.94" stroke="#D5F430" stroke-width="3"/>
<path d="M1162.44 418L724.265 1176.94" stroke="#D5F430" stroke-width="3"/>
<path d="M1167.64 421L729.461 1179.94" stroke="#D5F430" stroke-width="3"/>
<path d="M1172.83 424L734.658 1182.94" stroke="#D5F430" stroke-width="3"/>
<path d="M1178.03 427L739.854 1185.94" stroke="#D5F430" stroke-width="3"/>
<path d="M1183.22 430L745.05 1188.94" stroke="#D5F430" stroke-width="3"/>
<path d="M1188.42 433L750.246 1191.94" stroke="#D5F430" stroke-width="3"/>
<path d="M1193.62 436L755.442 1194.94" stroke="#D5F430" stroke-width="3"/>
<path d="M1198.81 439L760.638 1197.94" stroke="#D5F430" stroke-width="3"/>
<path d="M1204.01 442L765.835 1200.94" stroke="#D5F430" stroke-width="3"/>
<path d="M1209.2 445L771.031 1203.94" stroke="#D5F430" stroke-width="3"/>
<path d="M1214.4 448L776.227 1206.94" stroke="#D5F430" stroke-width="3"/>
<path d="M1219.6 451L781.423 1209.94" stroke="#D5F430" stroke-width="3"/>
<path d="M1224.79 454L786.619 1212.94" stroke="#D5F430" stroke-width="3"/>
<path d="M1229.99 457L791.815 1215.94" stroke="#D5F430" stroke-width="3"/>
<path d="M1235.19 460L797.011 1218.94" stroke="#D5F430" stroke-width="3"/>
<path d="M1240.38 463L802.208 1221.94" stroke="#D5F430" stroke-width="3"/>
<path d="M1245.58 466L807.404 1224.94" stroke="#D5F430" stroke-width="3"/>
<path d="M1250.77 469L812.6 1227.94" stroke="#D5F430" stroke-width="3"/>
<path d="M1255.97 472L817.796 1230.94" stroke="#D5F430" stroke-width="3"/>
<path d="M1261.17 475L822.992 1233.94" stroke="#D5F430" stroke-width="3"/>
<path d="M1266.36 478L828.188 1236.94" stroke="#D5F430" stroke-width="3"/>
<path d="M1271.56 481L833.384 1239.94" stroke="#D5F430" stroke-width="3"/>
<path d="M1276.75 484L838.581 1242.94" stroke="#D5F430" stroke-width="3"/>
<path d="M1281.95 487L843.777 1245.94" stroke="#D5F430" stroke-width="3"/>
<path d="M1287.15 490L848.973 1248.94" stroke="#D5F430" stroke-width="3"/>
<path d="M1292.34 493L854.169 1251.94" stroke="#D5F430" stroke-width="3"/>
<path d="M1297.54 496L859.365 1254.94" stroke="#D5F430" stroke-width="3"/>
<path d="M1302.74 499L864.561 1257.94" stroke="#D5F430" stroke-width="3"/>
<path d="M1307.93 502L869.758 1260.94" stroke="#D5F430" stroke-width="3"/>
<path d="M1313.13 505L874.954 1263.94" stroke="#D5F430" stroke-width="3"/>
<path d="M1318.32 508L880.15 1266.94" stroke="#D5F430" stroke-width="3"/>
<path d="M1323.52 511L885.346 1269.94" stroke="#D5F430" stroke-width="3"/>
<path d="M1328.72 514L890.542 1272.94" stroke="#D5F430" stroke-width="3"/>
<path d="M1333.91 517L895.738 1275.94" stroke="#D5F430" stroke-width="3"/>
<path d="M1339.11 520L900.934 1278.94" stroke="#D5F430" stroke-width="3"/>
<path d="M1344.3 523L906.131 1281.94" stroke="#D5F430" stroke-width="3"/>
<path d="M1349.5 526L911.327 1284.94" stroke="#D5F430" stroke-width="3"/>
<path d="M1354.7 529L916.523 1287.94" stroke="#D5F430" stroke-width="3"/>
<path d="M1359.89 532L921.719 1290.94" stroke="#D5F430" stroke-width="3"/>
<path d="M1365.09 535L926.915 1293.94" stroke="#D5F430" stroke-width="3"/>
<path d="M1370.29 538L932.111 1296.94" stroke="#D5F430" stroke-width="3"/>
<path d="M1375.48 541L937.307 1299.94" stroke="#D5F430" stroke-width="3"/>
<path d="M1380.68 544L942.504 1302.94" stroke="#D5F430" stroke-width="3"/>
<path d="M1385.87 547L947.7 1305.94" stroke="#D5F430" stroke-width="3"/>
<path d="M1391.07 550L952.896 1308.94" stroke="#D5F430" stroke-width="3"/>
<path d="M1396.27 553L958.092 1311.94" stroke="#D5F430" stroke-width="3"/>
<path d="M1401.46 556L963.288 1314.94" stroke="#D5F430" stroke-width="3"/>
<path d="M1406.66 559L968.484 1317.94" stroke="#D5F430" stroke-width="3"/>
<path d="M1411.85 562L973.68 1320.94" stroke="#D5F430" stroke-width="3"/>
<path d="M1417.05 565L978.877 1323.94" stroke="#D5F430" stroke-width="3"/>
<path d="M1422.25 568L984.073 1326.94" stroke="#D5F430" stroke-width="3"/>
<path d="M1427.44 571L989.269 1329.94" stroke="#D5F430" stroke-width="3"/>
<path d="M1432.64 574L994.465 1332.94" stroke="#D5F430" stroke-width="3"/>
<path d="M1437.83 577L999.661 1335.94" stroke="#D5F430" stroke-width="3"/>
<path d="M1443.03 580L1004.86 1338.94" stroke="#D5F430" stroke-width="3"/>
<path d="M1448.23 583L1010.05 1341.94" stroke="#D5F430" stroke-width="3"/>
<path d="M1453.42 586L1015.25 1344.94" stroke="#D5F430" stroke-width="3"/>
<path d="M1458.62 589L1020.45 1347.94" stroke="#D5F430" stroke-width="3"/>
<path d="M1463.82 592L1025.64 1350.94" stroke="#D5F430" stroke-width="3"/>
<path d="M1469.01 595L1030.84 1353.94" stroke="#D5F430" stroke-width="3"/>
<path d="M1474.21 598L1036.03 1356.94" stroke="#D5F430" stroke-width="3"/>
<path d="M1479.4 601L1041.23 1359.94" stroke="#D5F430" stroke-width="3"/>
<path d="M1484.6 604L1046.43 1362.94" stroke="#D5F430" stroke-width="3"/>
<path d="M1489.8 607L1051.62 1365.94" stroke="#D5F430" stroke-width="3"/>
<path d="M1494.99 610L1056.82 1368.94" stroke="#D5F430" stroke-width="3"/>
<path d="M1500.19 613L1062.02 1371.94" stroke="#D5F430" stroke-width="3"/>
<path d="M1505.39 616L1067.21 1374.94" stroke="#D5F430" stroke-width="3"/>
<path d="M1510.58 619L1072.41 1377.94" stroke="#D5F430" stroke-width="3"/>
<path d="M1515.78 622L1077.6 1380.94" stroke="#D5F430" stroke-width="3"/>
<path d="M1520.97 625L1082.8 1383.94" stroke="#D5F430" stroke-width="3"/>
<path d="M1526.17 628L1088 1386.94" stroke="#D5F430" stroke-width="3"/>
<path d="M1531.37 631L1093.19 1389.94" stroke="#D5F430" stroke-width="3"/>
<path d="M1536.56 634L1098.39 1392.94" stroke="#D5F430" stroke-width="3"/>
<path d="M1541.76 637L1103.58 1395.94" stroke="#D5F430" stroke-width="3"/>
<path d="M1546.95 640L1108.78 1398.94" stroke="#D5F430" stroke-width="3"/>
<path d="M1552.15 643L1113.98 1401.94" stroke="#D5F430" stroke-width="3"/>
<path d="M1557.35 646L1119.17 1404.94" stroke="#D5F430" stroke-width="3"/>
<path d="M1562.54 649L1124.37 1407.94" stroke="#D5F430" stroke-width="3"/>
<path d="M1567.74 652L1129.57 1410.94" stroke="#D5F430" stroke-width="3"/>
<path d="M1572.94 655L1134.76 1413.94" stroke="#D5F430" stroke-width="3"/>
<path d="M1578.13 658L1139.96 1416.94" stroke="#D5F430" stroke-width="3"/>
<path d="M1583.33 661L1145.15 1419.94" stroke="#D5F430" stroke-width="3"/>
<path d="M1588.52 664L1150.35 1422.94" stroke="#D5F430" stroke-width="3"/>
<path d="M1593.72 667L1155.55 1425.94" stroke="#D5F430" stroke-width="3"/>
<path d="M1598.92 670L1160.74 1428.94" stroke="#D5F430" stroke-width="3"/>
<path d="M1604.11 673L1165.94 1431.94" stroke="#D5F430" stroke-width="3"/>
<path d="M1609.31 676L1171.13 1434.94" stroke="#D5F430" stroke-width="3"/>
<path d="M1614.5 679L1176.33 1437.94" stroke="#D5F430" stroke-width="3"/>
<path d="M1619.7 682L1181.53 1440.94" stroke="#D5F430" stroke-width="3"/>
<path d="M1624.9 685L1186.72 1443.94" stroke="#D5F430" stroke-width="3"/>
<path d="M1630.09 688L1191.92 1446.94" stroke="#D5F430" stroke-width="3"/>
<path d="M1635.29 691L1197.12 1449.94" stroke="#D5F430" stroke-width="3"/>
<path d="M1640.49 694L1202.31 1452.94" stroke="#D5F430" stroke-width="3"/>
<path d="M1645.68 697L1207.51 1455.94" stroke="#D5F430" stroke-width="3"/>
<path d="M1650.88 700L1212.7 1458.94" stroke="#D5F430" stroke-width="3"/>
<path d="M1656.07 703L1217.9 1461.94" stroke="#D5F430" stroke-width="3"/>
<path d="M1661.27 706L1223.1 1464.94" stroke="#D5F430" stroke-width="3"/>
<path d="M1666.47 709L1228.29 1467.94" stroke="#D5F430" stroke-width="3"/>
<path d="M1671.66 712L1233.49 1470.94" stroke="#D5F430" stroke-width="3"/>
<path d="M1676.86 715L1238.68 1473.94" stroke="#D5F430" stroke-width="3"/>
<path d="M1682.05 718L1243.88 1476.94" stroke="#D5F430" stroke-width="3"/>
<path d="M1687.25 721L1249.08 1479.94" stroke="#D5F430" stroke-width="3"/>
<path d="M1692.45 724L1254.27 1482.94" stroke="#D5F430" stroke-width="3"/>
<path d="M1697.64 727L1259.47 1485.94" stroke="#D5F430" stroke-width="3"/>
<path d="M1702.84 730L1264.67 1488.94" stroke="#D5F430" stroke-width="3"/>
<path d="M1708.03 733L1269.86 1491.94" stroke="#D5F430" stroke-width="3"/>
<path d="M1713.23 736L1275.06 1494.94" stroke="#D5F430" stroke-width="3"/>
<path d="M1718.43 739L1280.25 1497.94" stroke="#D5F430" stroke-width="3"/>
<path d="M1723.62 742L1285.45 1500.94" stroke="#D5F430" stroke-width="3"/>
<path d="M1728.82 745L1290.65 1503.94" stroke="#D5F430" stroke-width="3"/>
<path d="M1734.02 748L1295.84 1506.94" stroke="#D5F430" stroke-width="3"/>
<path d="M1739.21 751L1301.04 1509.94" stroke="#D5F430" stroke-width="3"/>
<path d="M1744.41 754L1306.23 1512.94" stroke="#D5F430" stroke-width="3"/>
<path d="M1749.6 757L1311.43 1515.94" stroke="#D5F430" stroke-width="3"/>
<path d="M1754.8 760L1316.63 1518.94" stroke="#D5F430" stroke-width="3"/>
<path d="M1760 763L1321.82 1521.94" stroke="#D5F430" stroke-width="3"/>
<path d="M1765.19 766L1327.02 1524.94" stroke="#D5F430" stroke-width="3"/>
<path d="M1770.39 769L1332.22 1527.94" stroke="#D5F430" stroke-width="3"/>
<path d="M1775.58 772L1337.41 1530.94" stroke="#D5F430" stroke-width="3"/>
<path d="M1780.78 775L1342.61 1533.94" stroke="#D5F430" stroke-width="3"/>
<path d="M1785.98 778L1347.8 1536.94" stroke="#D5F430" stroke-width="3"/>
<path d="M1791.17 781L1353 1539.94" stroke="#D5F430" stroke-width="3"/>
<path d="M1796.37 784L1358.2 1542.94" stroke="#D5F430" stroke-width="3"/>
<path d="M1801.57 787L1363.39 1545.94" stroke="#D5F430" stroke-width="3"/>
<path d="M1806.76 790L1368.59 1548.94" stroke="#D5F430" stroke-width="3"/>
<path d="M1811.96 793L1373.78 1551.94" stroke="#D5F430" stroke-width="3"/>
<path d="M1817.15 796L1378.98 1554.94" stroke="#D5F430" stroke-width="3"/>
<path d="M1822.35 799L1384.18 1557.94" stroke="#D5F430" stroke-width="3"/>
<path d="M1827.55 802L1389.37 1560.94" stroke="#D5F430" stroke-width="3"/>
<path d="M1832.74 805L1394.57 1563.94" stroke="#D5F430" stroke-width="3"/>
<path d="M1837.94 808L1399.76 1566.94" stroke="#D5F430" stroke-width="3"/>
<path d="M1843.14 811L1404.96 1569.94" stroke="#D5F430" stroke-width="3"/>
<path d="M1848.33 814L1410.16 1572.94" stroke="#D5F430" stroke-width="3"/>
<path d="M1853.53 817L1415.35 1575.94" stroke="#D5F430" stroke-width="3"/>
<path d="M1858.72 820L1420.55 1578.94" stroke="#D5F430" stroke-width="3"/>
<path d="M1863.92 823L1425.75 1581.94" stroke="#D5F430" stroke-width="3"/>
<path d="M1869.12 826L1430.94 1584.94" stroke="#D5F430" stroke-width="3"/>
<path d="M1874.31 829L1436.14 1587.94" stroke="#D5F430" stroke-width="3"/>
<path d="M1879.51 832L1441.33 1590.94" stroke="#D5F430" stroke-width="3"/>
<path d="M1884.7 835L1446.53 1593.94" stroke="#D5F430" stroke-width="3"/>
<path d="M1889.9 838L1451.73 1596.94" stroke="#D5F430" stroke-width="3"/>
<path d="M1895.1 841L1456.92 1599.94" stroke="#D5F430" stroke-width="3"/>
<path d="M1900.29 844L1462.12 1602.94" stroke="#D5F430" stroke-width="3"/>
<path d="M1905.49 847L1467.32 1605.94" stroke="#D5F430" stroke-width="3"/>
<path d="M1910.69 850L1472.51 1608.94" stroke="#D5F430" stroke-width="3"/>
<path d="M1915.88 853L1477.71 1611.94" stroke="#D5F430" stroke-width="3"/>
<path d="M1921.08 856L1482.9 1614.94" stroke="#D5F430" stroke-width="3"/>
<path d="M1926.27 859L1488.1 1617.94" stroke="#D5F430" stroke-width="3"/>
<path d="M1931.47 862L1493.3 1620.94" stroke="#D5F430" stroke-width="3"/>
<path d="M1936.67 865L1498.49 1623.94" stroke="#D5F430" stroke-width="3"/>
<path d="M1941.86 868L1503.69 1626.94" stroke="#D5F430" stroke-width="3"/>
<path d="M1947.06 871L1508.88 1629.94" stroke="#D5F430" stroke-width="3"/>
<path d="M1952.25 874L1514.08 1632.94" stroke="#D5F430" stroke-width="3"/>
<path d="M1957.45 877L1519.28 1635.94" stroke="#D5F430" stroke-width="3"/>
<path d="M1962.65 880L1524.47 1638.94" stroke="#D5F430" stroke-width="3"/>
<path d="M1967.84 883L1529.67 1641.94" stroke="#D5F430" stroke-width="3"/>
<path d="M1973.04 886L1534.87 1644.94" stroke="#D5F430" stroke-width="3"/>
<path d="M1978.23 889L1540.06 1647.94" stroke="#D5F430" stroke-width="3"/>
<path d="M1983.43 892L1545.26 1650.94" stroke="#D5F430" stroke-width="3"/>
<path d="M1988.63 895L1550.45 1653.94" stroke="#D5F430" stroke-width="3"/>
<path d="M1993.82 898L1555.65 1656.94" stroke="#D5F430" stroke-width="3"/>
<path d="M1999.02 901L1560.85 1659.94" stroke="#D5F430" stroke-width="3"/>
<path d="M2004.22 904L1566.04 1662.94" stroke="#D5F430" stroke-width="3"/>
<path d="M2009.41 907L1571.24 1665.94" stroke="#D5F430" stroke-width="3"/>
<path d="M2014.61 910L1576.43 1668.94" stroke="#D5F430" stroke-width="3"/>
<path d="M2019.8 913L1581.63 1671.94" stroke="#D5F430" stroke-width="3"/>
<path d="M2025 916L1586.83 1674.94" stroke="#D5F430" stroke-width="3"/>
<path d="M2030.2 919L1592.02 1677.94" stroke="#D5F430" stroke-width="3"/>
<path d="M2035.39 922L1597.22 1680.94" stroke="#D5F430" stroke-width="3"/>
<path d="M2040.59 925L1602.42 1683.94" stroke="#D5F430" stroke-width="3"/>
<path d="M2045.78 928L1607.61 1686.94" stroke="#D5F430" stroke-width="3"/>
<path d="M2050.98 931L1612.81 1689.94" stroke="#D5F430" stroke-width="3"/>
<path d="M2056.18 934L1618 1692.94" stroke="#D5F430" stroke-width="3"/>
<path d="M2061.37 937L1623.2 1695.94" stroke="#D5F430" stroke-width="3"/>
<path d="M2066.57 940L1628.4 1698.94" stroke="#D5F430" stroke-width="3"/>
<path d="M2071.77 943L1633.59 1701.94" stroke="#D5F430" stroke-width="3"/>
<path d="M2076.96 946L1638.79 1704.94" stroke="#D5F430" stroke-width="3"/>
<path d="M2082.16 949L1643.98 1707.94" stroke="#D5F430" stroke-width="3"/>
<path d="M2087.35 952L1649.18 1710.94" stroke="#D5F430" stroke-width="3"/>
<path d="M2092.55 955L1654.38 1713.94" stroke="#D5F430" stroke-width="3"/>
<path d="M2097.75 958L1659.57 1716.94" stroke="#D5F430" stroke-width="3"/>
<path d="M2102.94 961L1664.77 1719.94" stroke="#D5F430" stroke-width="3"/>
<path d="M2108.14 964L1669.96 1722.94" stroke="#D5F430" stroke-width="3"/>
<path d="M2113.33 967L1675.16 1725.94" stroke="#D5F430" stroke-width="3"/>
<path d="M2118.53 970L1680.36 1728.94" stroke="#D5F430" stroke-width="3"/>
<path d="M2123.73 973L1685.55 1731.94" stroke="#D5F430" stroke-width="3"/>
<path d="M2128.92 976L1690.75 1734.94" stroke="#D5F430" stroke-width="3"/>
<path d="M2134.12 979L1695.95 1737.94" stroke="#D5F430" stroke-width="3"/>
<path d="M2139.32 982L1701.14 1740.94" stroke="#D5F430" stroke-width="3"/>
</svg>
